<svg width="80" height="80" viewBox="0 0 80 80" fill="none" xmlns="http://www.w3.org/2000/svg">
<path d="M0 15C0 12.2391 2.55893 10 5.71429 10H74.2857C77.4464 10 80 12.2391 80 15C80 17.7656 77.4464 20 74.2857 20H5.71429C2.55893 20 0 17.7656 0 15ZM0 40C0 37.2344 2.55893 35 5.71429 35H74.2857C77.4464 35 80 37.2344 80 40C80 42.7656 77.4464 45 74.2857 45H5.71429C2.55893 45 0 42.7656 0 40ZM74.2857 70H5.71429C2.55893 70 0 67.7656 0 65C0 62.2344 2.55893 60 5.71429 60H74.2857C77.4464 60 80 62.2344 80 65C80 67.7656 77.4464 70 74.2857 70Z" fill="#05386B"/>
</svg>
