<svg width="516" height="444" viewBox="0 0 516 444" fill="none" xmlns="http://www.w3.org/2000/svg">
<path d="M479.996 167.999C489.306 135.162 495.956 104.159 470.486 71.4813C438.739 30.7168 392.016 29.9986 343.95 41.5297C291.628 54.0982 240.21 74.6999 187.542 50.8397C167.805 41.8888 150.408 28.2297 129.381 22.3777C69.97 5.96549 22.7018 59.3251 9.22891 107.817C0.929991 137.914 0.874864 169.688 9.06931 199.813C16.4242 226.878 43.2503 244.82 48.4639 272.098C55.2735 307.716 16.5439 344.105 57.1754 373.178C72.5369 384.178 93.1519 387.197 112.291 384.696C156.074 378.991 192.569 350.967 231.711 334.037C270.627 317.199 315.182 307.742 355.095 327.107C378.596 338.505 411.913 356.101 438.553 343.2C466.563 329.648 482.855 299.443 479.344 270.755C476.551 247.799 465.858 223.926 471.164 200.664C473.705 189.452 476.95 178.626 479.996 167.999Z" fill="#92E3A9"/>
<path opacity="0.5" d="M479.996 167.999C489.306 135.162 495.956 104.159 470.486 71.4813C438.739 30.7168 392.016 29.9986 343.95 41.5297C291.628 54.0982 240.21 74.6999 187.542 50.8397C167.805 41.8888 150.408 28.2297 129.381 22.3777C69.97 5.96549 22.7018 59.3251 9.22891 107.817C0.929991 137.914 0.874864 169.688 9.06931 199.813C16.4242 226.878 43.2503 244.82 48.4639 272.098C55.2735 307.716 16.5439 344.105 57.1754 373.178C72.5369 384.178 93.1519 387.197 112.291 384.696C156.074 378.991 192.569 350.967 231.711 334.037C270.627 317.199 315.182 307.742 355.095 327.107C378.596 338.505 411.913 356.101 438.553 343.2C466.563 329.648 482.855 299.443 479.344 270.755C476.551 247.799 465.858 223.926 471.164 200.664C473.705 189.452 476.95 178.626 479.996 167.999Z" fill="white"/>
<path d="M269.909 416.603C386.987 416.603 481.898 409.118 481.898 399.885C481.898 390.651 386.987 383.167 269.909 383.167C152.831 383.167 57.9202 390.651 57.9202 399.885C57.9202 409.118 152.831 416.603 269.909 416.603Z" fill="#92E3A9"/>
<path opacity="0.3" d="M269.909 416.603C386.987 416.603 481.898 409.118 481.898 399.885C481.898 390.651 386.987 383.167 269.909 383.167C152.831 383.167 57.9202 390.651 57.9202 399.885C57.9202 409.118 152.831 416.603 269.909 416.603Z" fill="white"/>
<path d="M496.9 428.134H23.42V443.203H496.9V428.134Z" fill="#92E3A9"/>
<path opacity="0.5" d="M496.9 428.134H23.42V443.203H496.9V428.134Z" fill="white"/>
<path d="M52.7997 325.219C54.5085 323.914 56.0144 322.363 57.2685 320.617C57.7365 319.821 58.0264 318.934 58.1183 318.015C58.2101 317.097 58.1017 316.169 57.8005 315.297C57.6207 314.91 57.3617 314.566 57.0403 314.286C56.7189 314.006 56.3424 313.796 55.9349 313.671C55.5275 313.546 55.0983 313.507 54.6751 313.558C54.2519 313.609 53.844 313.748 53.478 313.967C51.2968 315.297 51.0574 319.965 51.616 322.186C51.6692 322.319 52.7731 325.245 52.7997 325.219Z" fill="#2E353A"/>
<path d="M19.9754 348.573C20.1217 348.706 22.6354 350.542 22.6354 350.502C22.6354 350.462 24.0452 346.206 23.8191 344.198C23.7765 343.277 23.5344 342.377 23.1096 341.56C22.6847 340.742 22.0873 340.027 21.3585 339.463C20.9977 339.234 20.5927 339.084 20.1699 339.021C19.7472 338.959 19.316 338.987 18.9046 339.102C18.4932 339.218 18.1106 339.418 17.7818 339.691C17.453 339.964 17.1853 340.303 16.9961 340.686C15.9188 343.027 18.2863 347.017 19.9754 348.573Z" fill="#2E353A"/>
<path d="M94.3755 329.461C94.3755 329.461 81.3814 342.881 81.4479 359.36C81.5144 375.838 94.6282 389.152 94.6282 389.152C94.6282 389.152 107.622 375.732 107.556 359.253C107.489 342.774 94.3755 329.461 94.3755 329.461Z" fill="#2E353A"/>
<path d="M75.8353 369.228C76.0075 369.044 76.1674 368.848 76.3141 368.643C76.8743 367.905 77.2668 367.054 77.4644 366.149C77.6619 365.244 77.6597 364.307 77.4579 363.403C77.3283 362.995 77.1141 362.619 76.8294 362.299C76.5447 361.98 76.1958 361.724 75.8056 361.548C75.4153 361.372 74.9924 361.281 74.5644 361.28C74.1364 361.278 73.7129 361.367 73.3216 361.541C71.566 362.365 70.6616 365.198 70.5153 367.512C69.8104 367.353 69.1853 367.233 68.6267 367.14C68.4006 366.608 68.1612 366.089 67.9218 365.557C67.6824 365.025 67.4829 364.453 67.2568 363.895C66.9509 363.07 66.6716 362.206 66.3923 361.341C68.2519 360.583 69.9835 359.542 71.5261 358.256C72.1908 357.612 72.7076 356.831 73.0406 355.967C73.3736 355.104 73.5149 354.178 73.4546 353.255C73.389 352.832 73.235 352.427 73.0025 352.068C72.77 351.708 72.4643 351.402 72.1054 351.168C71.7464 350.935 71.3423 350.78 70.9194 350.713C70.4964 350.646 70.0642 350.669 69.6508 350.781C67.1903 351.513 65.7406 355.915 65.6608 358.216C65.6608 358.296 65.6608 358.774 65.7406 359.36C65.5012 358.508 65.2485 357.657 65.0224 356.793C64.384 354.319 63.8254 351.792 63.2402 349.252C63.1205 348.72 62.9875 348.201 62.8678 347.669C64.7916 346.89 66.5855 345.823 68.1878 344.503C68.8577 343.856 69.3766 343.068 69.7076 342.197C70.0387 341.326 70.1736 340.392 70.103 339.463C70.0391 339.04 69.8866 338.636 69.6555 338.276C69.4244 337.917 69.1199 337.61 68.762 337.377C68.4041 337.143 68.0009 336.988 67.5787 336.921C67.1566 336.854 66.7251 336.877 66.3125 336.989C63.8387 337.72 62.3225 342.136 62.3225 344.437C62.3225 344.517 62.3225 345.102 62.4289 345.767C62.0964 344.437 61.7506 343.04 61.3516 341.697C60.6951 339.385 59.8865 337.119 58.931 334.914C60.9014 334.118 62.7399 333.029 64.384 331.682C65.0509 331.04 65.5692 330.259 65.9023 329.396C66.2355 328.532 66.3755 327.605 66.3125 326.681C66.2469 326.258 66.0929 325.854 65.8604 325.494C65.6279 325.135 65.3222 324.828 64.9633 324.595C64.6043 324.361 64.2002 324.206 63.7773 324.14C63.3543 324.073 62.9221 324.096 62.5087 324.208C60.0482 324.939 58.5985 329.355 58.5187 331.642C58.5187 331.815 58.7049 333.917 58.798 334.661V334.582C57.7994 332.443 56.6156 330.396 55.2602 328.464C54.0526 326.737 52.7471 325.08 51.35 323.503C50.02 322.026 48.8097 320.763 47.6792 319.646C47.0674 319.047 46.4955 318.502 45.9502 318.01C45.9502 318.01 44.7532 315.137 44.6202 314.964C43.4631 312.969 40.0583 309.804 37.5446 310.349C37.1311 310.452 36.7437 310.641 36.4077 310.903C36.0717 311.165 35.7944 311.495 35.5938 311.871C35.3932 312.247 35.2738 312.661 35.2433 313.086C35.2128 313.511 35.2718 313.938 35.4166 314.339C35.8064 315.179 36.375 315.924 37.0825 316.521C37.7901 317.118 38.6196 317.554 39.513 317.797C41.5561 318.183 43.6461 318.255 45.7108 318.01C46.2561 318.542 46.8413 319.1 47.4664 319.752C48.5703 320.883 49.8072 322.186 51.0441 323.676C51.3766 324.075 51.7224 324.514 52.0549 325.006C51.3367 324.42 50.3392 323.609 50.2328 323.543C48.291 322.319 43.8222 321.069 41.8405 322.718C41.5238 323.005 41.2706 323.355 41.0974 323.745C40.9241 324.136 40.8346 324.558 40.8346 324.986C40.8346 325.413 40.9241 325.836 41.0974 326.226C41.2706 326.617 41.5238 326.967 41.8405 327.253C42.5758 327.814 43.4237 328.209 44.3259 328.411C45.2281 328.613 46.1633 328.617 47.0674 328.424C49.0703 327.837 50.9687 326.939 52.6933 325.764C53.4381 326.721 54.1696 327.706 54.8745 328.783C56.1731 330.717 57.2949 332.765 58.2261 334.901C58.2261 335.021 58.3192 335.154 58.3724 335.273C58.0665 334.927 56.271 333.092 56.1247 332.986C54.3292 331.549 50.02 329.82 47.8787 331.23C47.5279 331.476 47.2325 331.792 47.0116 332.159C46.7908 332.526 46.6495 332.935 46.5969 333.36C46.5442 333.785 46.5814 334.217 46.706 334.626C46.8306 335.036 47.0398 335.415 47.3201 335.739C47.9891 336.378 48.7883 336.864 49.663 337.165C50.5377 337.466 51.4671 337.573 52.3874 337.481C54.4896 337.079 56.5201 336.366 58.4123 335.366C59.2891 337.532 60.0222 339.754 60.6068 342.016C61.059 343.679 61.4314 345.381 61.8038 347.097C61.3915 346.645 59.7157 344.942 59.5827 344.836C57.7872 343.4 53.478 341.671 51.3234 343.08C50.9735 343.327 50.6793 343.644 50.4597 344.012C50.2401 344.379 50.1001 344.789 50.0487 345.214C49.9973 345.638 50.0357 346.07 50.1613 346.479C50.287 346.888 50.4971 347.266 50.7781 347.589C51.4445 348.232 52.2434 348.721 53.1188 349.021C53.9942 349.322 54.9248 349.428 55.8454 349.331C57.9351 348.937 59.953 348.229 61.8304 347.23C62.0033 348.015 62.1629 348.786 62.3225 349.571C62.8545 352.111 63.3732 354.665 63.9584 357.165C64.1579 358.03 64.384 358.881 64.6234 359.732C63.985 359.067 62.8146 357.897 62.7082 357.803C60.9127 356.367 56.6035 354.638 54.4489 356.061C54.0994 356.306 53.8054 356.623 53.5859 356.989C53.3664 357.355 53.2265 357.763 53.175 358.187C53.1236 358.611 53.1619 359.041 53.2874 359.449C53.4129 359.858 53.6229 360.235 53.9036 360.557C54.57 361.199 55.3689 361.688 56.2443 361.989C57.1197 362.29 58.0503 362.396 58.9709 362.299C60.9931 361.929 62.948 361.256 64.7697 360.304C65.1599 361.714 65.6032 363.097 66.0997 364.453C66.3258 365.025 66.512 365.637 66.7514 366.182L67.1105 367.047H66.6184C66.6184 367.047 66.6184 367.858 66.6184 369.162C64.7298 367.832 62.0033 366.648 60.2211 367.473C59.8394 367.663 59.5019 367.932 59.2301 368.261C58.9584 368.59 58.7585 368.972 58.6432 369.383C58.528 369.794 58.5 370.224 58.561 370.646C58.622 371.069 58.7707 371.474 58.9975 371.835C59.1186 372.025 59.2519 372.207 59.3965 372.38C59.7317 374.374 60.5745 376.247 61.8437 377.82C61.9368 377.94 63.1737 379.15 63.8919 379.709L61.9368 378.645C60.9659 378.099 59.9684 377.501 58.9975 376.929C58.4921 376.623 58 376.304 57.4946 375.971C56.9892 375.639 56.5237 375.306 56.0316 374.96C55.3134 374.442 54.6085 373.883 53.8903 373.311C55.0293 371.654 55.9 369.827 56.4705 367.898C56.673 366.995 56.6743 366.059 56.4744 365.156C56.2744 364.252 55.878 363.404 55.3134 362.671C55.029 362.353 54.6806 362.098 54.2909 361.924C53.9013 361.75 53.4793 361.66 53.0524 361.66C52.6256 361.66 52.2036 361.75 51.8139 361.924C51.4243 362.098 51.0759 362.353 50.7914 362.671C49.1289 364.64 50.3525 369.122 51.5761 371.064C51.5761 371.13 51.9219 371.516 52.281 371.968C51.6027 371.396 50.951 370.824 50.2594 370.226C48.3708 368.523 46.4955 366.714 44.6202 364.906L43.4365 363.802C44.6016 362.095 45.4986 360.22 46.0965 358.242C46.2983 357.338 46.3005 356.401 46.103 355.496C45.9054 354.591 45.5129 353.74 44.9527 353.002C44.666 352.685 44.316 352.432 43.9255 352.259C43.5349 352.086 43.1124 351.996 42.6851 351.996C42.2578 351.996 41.8353 352.086 41.4447 352.259C41.0541 352.432 40.7042 352.685 40.4174 353.002C38.7682 354.971 39.9918 359.453 41.2154 361.394C41.2154 361.461 41.6144 361.926 42.0267 362.432C40.9893 361.474 39.9386 360.53 38.8746 359.626C37.0528 358.063 35.1289 356.623 33.1157 355.316C34.314 353.556 35.2462 351.629 35.8821 349.597C36.0783 348.694 36.0764 347.759 35.8766 346.857C35.6769 345.955 35.284 345.106 34.725 344.37C34.4394 344.052 34.0898 343.797 33.6991 343.623C33.3084 343.448 32.8853 343.358 32.4574 343.358C32.0295 343.358 31.6064 343.448 31.2157 343.623C30.825 343.797 30.4754 344.052 30.1897 344.37C28.5405 346.339 29.7641 350.821 30.9877 352.763C31.0808 352.909 32.3975 354.558 32.8896 355.13H32.8098C30.7997 353.898 28.6859 352.843 26.4923 351.978C24.5323 351.204 22.5296 350.542 20.494 349.996C18.6187 349.478 16.8631 349.105 15.307 348.799L12.9662 348.387C12.9662 348.387 10.3062 346.658 10.1998 346.565C8.13833 345.541 3.54984 344.783 1.76764 346.565C1.47641 346.878 1.25474 347.25 1.11718 347.654C0.979617 348.059 0.929281 348.489 0.969475 348.915C1.00967 349.341 1.13948 349.753 1.35039 350.125C1.5613 350.497 1.84854 350.82 2.19324 351.074C2.9804 351.56 3.8647 351.869 4.78386 351.977C5.70303 352.085 6.63469 351.99 7.51324 351.699C9.4404 350.898 11.2343 349.808 12.8332 348.467C13.578 348.6 14.376 348.746 15.2538 348.932C16.7966 349.278 18.5389 349.677 20.4009 350.262C20.9063 350.409 21.4383 350.595 21.9437 350.754L19.6295 350.542C17.3286 350.542 12.9795 352.018 12.1682 354.532C12.0543 354.943 12.0286 355.374 12.0928 355.796C12.157 356.218 12.3095 356.622 12.5406 356.981C12.7716 357.34 13.0758 357.647 13.4334 357.88C13.7909 358.113 14.1937 358.269 14.6154 358.335C15.5392 358.402 16.4664 358.266 17.3324 357.938C18.1983 357.609 18.9823 357.096 19.6295 356.434C20.9639 354.832 22.0489 353.039 22.8481 351.114C23.9786 351.499 25.1357 351.912 26.3194 352.444C28.4695 353.333 30.5349 354.415 32.4906 355.675L32.8231 355.915C32.3709 355.795 29.8572 355.263 29.6843 355.25C27.3967 355.037 22.8481 355.981 21.8373 358.349C21.6869 358.742 21.6204 359.163 21.6422 359.584C21.6641 360.004 21.7737 360.416 21.9641 360.792C22.1545 361.167 22.4215 361.499 22.7478 361.766C23.0742 362.032 23.4526 362.227 23.8589 362.339C24.7682 362.508 25.7034 362.476 26.5993 362.247C27.4952 362.017 28.3301 361.594 29.0459 361.009C30.5736 359.513 31.8732 357.802 32.9029 355.928C34.8194 357.237 36.6498 358.667 38.3825 360.211C39.7125 361.355 40.9228 362.565 42.173 363.788C41.5878 363.629 39.247 363.15 39.0741 363.137C36.7865 362.924 32.2379 363.855 31.2271 366.222C31.0698 366.62 30.998 367.046 31.0163 367.473C31.0346 367.9 31.1426 368.319 31.3332 368.702C31.5239 369.084 31.793 369.422 32.1231 369.694C32.4531 369.966 32.8366 370.165 33.2487 370.279C34.158 370.448 35.0932 370.416 35.9891 370.187C36.885 369.957 37.7199 369.535 38.4357 368.949C39.9592 367.468 41.2546 365.769 42.2794 363.908L43.9685 365.571C45.8172 367.406 47.6526 369.255 49.5279 371.01C50.1663 371.622 50.8579 372.207 51.4963 372.793C50.6052 372.593 48.9826 372.247 48.8363 372.234C46.5487 372.021 42.0001 372.965 40.9893 375.333C40.832 375.73 40.7602 376.157 40.7785 376.584C40.7968 377.011 40.9048 377.429 41.0954 377.812C41.2861 378.195 41.5552 378.533 41.8853 378.805C42.2153 379.076 42.5988 379.276 43.0109 379.389C43.9202 379.558 44.8554 379.527 45.7513 379.297C46.6472 379.067 47.4821 378.645 48.1979 378.059C49.6905 376.645 50.9476 375.002 51.9219 373.192C53.0391 374.162 54.1563 375.093 55.2868 375.945C55.7922 376.317 56.2843 376.716 56.7764 377.035L58.266 378.019C59.2901 378.658 60.2477 379.256 61.2319 379.828L62.6683 380.666C61.8038 380.32 60.4073 379.802 60.2876 379.775C58.0532 379.216 53.4115 379.456 52.0549 381.637C51.8364 382.003 51.6972 382.411 51.6462 382.834C51.5952 383.257 51.6337 383.687 51.7591 384.094C51.8844 384.501 52.0939 384.878 52.374 385.199C52.654 385.521 52.9985 385.78 53.3849 385.96C54.2579 386.261 55.1863 386.369 56.1052 386.275C57.0241 386.181 57.9113 385.887 58.7049 385.414C60.4315 384.191 61.961 382.711 63.2402 381.025C64.4239 381.704 65.581 382.355 66.6716 382.927C69.5976 384.497 72.1379 385.733 74.1196 386.664C80.5302 392.211 89.5742 392.822 89.5742 392.822C89.5742 392.822 90.0397 382.009 83.669 374.881C81.5038 372.445 78.8294 370.515 75.8353 369.228V369.228ZM64.384 379.788C65.2565 377.939 65.8739 375.979 66.2194 373.963L67.2834 373.737C67.9443 377.156 69.3026 380.402 71.2734 383.273C70.103 382.714 68.8395 382.103 67.4962 381.411C66.4987 380.919 65.448 380.36 64.384 379.788Z" fill="#2E353A"/>
<path d="M123.17 367.167C123.17 367.167 112.344 367.5 105.72 374.376C99.097 381.252 99.23 392.091 99.23 392.091C99.23 392.091 110.056 391.759 116.68 384.883C123.303 378.007 123.17 367.167 123.17 367.167Z" fill="#2E353A"/>
<path d="M94.9075 374.136L105.548 364.573L105.082 364.068L94.9075 373.218L94.8543 360.69L94.9075 360.729L103.898 347.576L103.34 347.19L94.841 359.612L94.708 329.461H94.0297L94.1228 349.93L87.3531 344.065L86.9009 344.583L94.1228 350.834L94.1893 365.464L83.9217 356.394L83.4695 356.899L94.1893 366.382L94.2425 379.695L86.5418 373.644L86.1162 374.189L94.2558 380.573L94.2824 389.152L94.974 389.138L94.9075 374.136Z" fill="white"/>
<path d="M85.1187 377.82L84.4404 377.753L83.5759 385.321L79.014 380.214L77.8569 371.05L77.1786 371.143L78.216 379.336L66.8711 366.648L66.3657 367.1L74.0664 375.705L69.1853 375.772L69.1986 376.45L74.6649 376.384L80.0647 382.422L72.4438 382.435V383.113L80.6765 383.1L85.5842 388.593L80.211 388.912L80.2509 389.59L86.1694 389.245L89.4412 392.889L89.9466 392.437L84.1877 385.999L85.1187 377.82Z" fill="white"/>
<path d="M110.801 380.52L119.858 378.684L119.725 378.019L111.626 379.669L123.436 367.393L122.944 366.927L114.924 375.253L114.512 370.385L113.833 370.452L114.299 375.905L108.686 381.73L108.114 374.136L107.423 374.189L108.048 382.395L102.941 387.702L102.223 382.355L101.544 382.448L102.342 388.327L98.9374 391.851L99.4295 392.33L105.428 386.106L113.647 386.425L113.674 385.747L106.053 385.454L110.801 380.52Z" fill="white"/>
<path d="M463.557 325.218C461.856 323.909 460.356 322.359 459.101 320.617C458.633 319.821 458.344 318.934 458.252 318.015C458.16 317.097 458.268 316.169 458.569 315.297C458.748 314.911 459.006 314.566 459.326 314.286C459.646 314.006 460.021 313.797 460.428 313.671C460.834 313.546 461.262 313.508 461.685 313.558C462.107 313.609 462.514 313.748 462.879 313.967C465.073 315.297 465.299 319.965 464.754 322.186C464.701 322.319 463.65 325.245 463.557 325.218Z" fill="#2E353A"/>
<path d="M496.395 348.573C496.248 348.706 493.735 350.542 493.735 350.502C493.735 350.462 492.325 346.206 492.551 344.198C492.598 343.274 492.846 342.372 493.278 341.554C493.71 340.736 494.315 340.023 495.051 339.463C495.412 339.234 495.817 339.084 496.24 339.021C496.663 338.959 497.094 338.987 497.505 339.102C497.917 339.218 498.299 339.418 498.628 339.691C498.957 339.964 499.225 340.303 499.414 340.686C500.451 343.027 498.084 347.017 496.395 348.573Z" fill="#2E353A"/>
<path d="M421.994 329.461C421.994 329.461 434.989 342.881 434.922 359.36C434.856 375.838 421.742 389.152 421.742 389.152C421.742 389.152 408.734 375.732 408.814 359.253C408.894 342.774 421.994 329.461 421.994 329.461Z" fill="#2E353A"/>
<path d="M440.521 369.228C440.353 369.044 440.198 368.848 440.056 368.643C439.496 367.905 439.103 367.054 438.906 366.149C438.708 365.244 438.71 364.307 438.912 363.403C439.04 362.995 439.253 362.62 439.536 362.3C439.82 361.981 440.167 361.725 440.557 361.549C440.946 361.373 441.368 361.281 441.795 361.28C442.222 361.279 442.645 361.368 443.035 361.541C444.804 362.365 445.695 365.198 445.855 367.512C446.56 367.353 447.185 367.233 447.743 367.14C447.969 366.608 448.209 366.089 448.448 365.557C448.688 365.025 448.887 364.453 449.113 363.895C449.419 363.07 449.698 362.206 449.978 361.341C448.118 360.583 446.386 359.542 444.844 358.256C444.179 357.612 443.662 356.831 443.329 355.967C442.996 355.104 442.855 354.178 442.915 353.255C442.981 352.832 443.135 352.427 443.367 352.068C443.6 351.708 443.906 351.402 444.265 351.168C444.624 350.935 445.028 350.78 445.451 350.713C445.874 350.646 446.306 350.669 446.719 350.781C449.18 351.513 450.629 355.915 450.709 358.216C450.709 358.296 450.709 358.774 450.616 359.36C450.869 358.508 451.121 357.657 451.348 356.793C451.986 354.319 452.545 351.792 453.13 349.252C453.249 348.72 453.382 348.201 453.502 347.669C451.578 346.89 449.784 345.823 448.182 344.503C447.518 343.859 447.002 343.078 446.669 342.215C446.336 341.351 446.194 340.426 446.254 339.503C446.321 339.081 446.476 338.677 446.709 338.319C446.942 337.96 447.248 337.655 447.606 337.422C447.965 337.188 448.368 337.033 448.79 336.965C449.213 336.898 449.644 336.919 450.057 337.029C452.531 337.76 454.047 342.176 454.047 344.477C454.047 344.557 454.047 345.142 453.928 345.807C454.274 344.477 454.619 343.08 455.018 341.737C455.675 339.425 456.483 337.159 457.439 334.954C455.469 334.158 453.63 333.068 451.986 331.722C451.319 331.08 450.801 330.299 450.468 329.435C450.135 328.572 449.994 327.645 450.057 326.721C450.123 326.3 450.277 325.897 450.509 325.538C450.74 325.18 451.045 324.874 451.402 324.641C451.759 324.408 452.162 324.252 452.583 324.184C453.005 324.117 453.435 324.138 453.848 324.248C456.322 324.979 457.771 329.395 457.838 331.682C457.838 331.855 457.652 333.957 457.559 334.701C457.559 334.701 457.559 334.701 457.559 334.622C458.552 332.48 459.736 330.433 461.096 328.504C462.294 326.764 463.591 325.094 464.98 323.503C466.31 322.026 467.52 320.763 468.651 319.646C469.263 319.047 469.835 318.502 470.38 318.01H470.3C470.3 318.01 471.51 315.137 471.63 314.964C472.787 312.969 476.179 309.804 478.706 310.349C479.118 310.454 479.504 310.644 479.839 310.906C480.174 311.169 480.45 311.499 480.651 311.874C480.851 312.25 480.971 312.663 481.002 313.087C481.034 313.512 480.976 313.938 480.834 314.339C480.444 315.179 479.875 315.924 479.168 316.521C478.46 317.118 477.631 317.554 476.737 317.797C474.694 318.183 472.604 318.255 470.539 318.01C469.994 318.542 469.409 319.1 468.771 319.752C467.68 320.883 466.443 322.186 465.206 323.676C464.874 324.075 464.528 324.514 464.195 325.006C464.914 324.42 465.911 323.609 466.017 323.543C467.946 322.319 472.428 321.069 474.41 322.718C474.726 323.005 474.98 323.355 475.153 323.745C475.326 324.136 475.416 324.558 475.416 324.986C475.416 325.413 475.326 325.836 475.153 326.226C474.98 326.617 474.726 326.967 474.41 327.253C473.674 327.814 472.827 328.209 471.924 328.411C471.022 328.613 470.087 328.617 469.183 328.424C467.177 327.833 465.275 326.936 463.544 325.764C462.812 326.721 462.081 327.706 461.376 328.783C460.077 330.72 458.952 332.767 458.011 334.901C458.011 335.021 457.918 335.154 457.878 335.273C458.17 334.927 459.979 333.092 460.126 332.986C461.921 331.549 466.23 329.82 468.372 331.23C468.722 331.476 469.018 331.792 469.239 332.159C469.459 332.526 469.601 332.935 469.653 333.36C469.706 333.785 469.669 334.217 469.544 334.626C469.42 335.036 469.21 335.415 468.93 335.739C468.261 336.378 467.462 336.864 466.587 337.165C465.713 337.466 464.783 337.573 463.863 337.481C461.761 337.079 459.73 336.366 457.838 335.366C456.961 337.532 456.228 339.754 455.643 342.016C455.191 343.679 454.819 345.381 454.446 347.097C454.859 346.645 456.535 344.942 456.668 344.836C458.463 343.4 462.772 341.671 464.927 343.08C465.277 343.327 465.571 343.644 465.791 344.012C466.01 344.379 466.15 344.789 466.202 345.214C466.253 345.638 466.215 346.07 466.089 346.479C465.963 346.888 465.753 347.266 465.472 347.589C464.806 348.232 464.007 348.721 463.131 349.021C462.256 349.322 461.325 349.428 460.405 349.331C458.315 348.94 456.296 348.231 454.42 347.23C454.247 348.015 454.087 348.786 453.914 349.571C453.396 352.111 452.877 354.665 452.292 357.165C452.092 358.03 451.853 358.881 451.627 359.732C452.265 359.067 453.436 357.897 453.542 357.803C455.338 356.367 459.647 354.638 461.788 356.061C462.139 356.305 462.434 356.621 462.654 356.986C462.875 357.352 463.016 357.76 463.069 358.184C463.122 358.608 463.085 359.039 462.96 359.447C462.836 359.856 462.627 360.234 462.347 360.557C461.68 361.198 460.881 361.687 460.006 361.988C459.13 362.289 458.2 362.395 457.279 362.299C455.257 361.929 453.302 361.256 451.481 360.304C451.095 361.714 450.669 363.097 450.151 364.453C449.938 365.025 449.752 365.637 449.512 366.182L449.153 367.047H449.645C449.645 367.047 449.645 367.858 449.645 369.162C451.534 367.832 454.26 366.648 456.029 367.473C456.413 367.661 456.754 367.927 457.028 368.256C457.302 368.584 457.504 368.966 457.621 369.378C457.738 369.789 457.767 370.221 457.705 370.644C457.644 371.068 457.494 371.473 457.266 371.835C457.145 372.025 457.012 372.207 456.867 372.38C456.532 374.374 455.689 376.247 454.42 377.82C454.327 377.94 453.09 379.15 452.372 379.709L454.327 378.645C455.298 378.099 456.295 377.501 457.266 376.929C457.771 376.623 458.264 376.304 458.769 375.971C459.274 375.639 459.74 375.306 460.232 374.96C460.95 374.442 461.655 373.883 462.373 373.311C461.234 371.654 460.364 369.827 459.793 367.898C459.591 366.996 459.589 366.061 459.787 365.158C459.985 364.255 460.377 363.407 460.937 362.671C461.222 362.353 461.572 362.098 461.963 361.923C462.353 361.749 462.777 361.659 463.204 361.659C463.632 361.659 464.055 361.749 464.446 361.923C464.837 362.098 465.186 362.353 465.472 362.671C467.135 364.64 465.911 369.122 464.687 371.064C464.687 371.13 464.342 371.516 463.983 371.968C464.661 371.396 465.313 370.824 466.004 370.226C467.893 368.523 469.768 366.714 471.643 364.906L472.827 363.802C471.667 362.092 470.77 360.218 470.167 358.242C469.971 357.337 469.972 356.4 470.172 355.496C470.372 354.591 470.765 353.741 471.324 353.002C471.611 352.685 471.961 352.432 472.351 352.259C472.742 352.086 473.165 351.996 473.592 351.996C474.019 351.996 474.442 352.086 474.832 352.259C475.223 352.432 475.573 352.685 475.859 353.002C477.509 354.971 476.285 359.453 475.061 361.394C475.061 361.461 474.662 361.926 474.25 362.432C475.288 361.474 476.338 360.53 477.402 359.626C479.224 358.063 481.148 356.623 483.161 355.316C481.958 353.559 481.026 351.631 480.395 349.597C480.196 348.694 480.196 347.759 480.396 346.856C480.596 345.953 480.99 345.105 481.552 344.37C481.837 344.052 482.187 343.797 482.578 343.623C482.968 343.448 483.392 343.358 483.819 343.358C484.247 343.358 484.67 343.448 485.061 343.623C485.452 343.797 485.801 344.052 486.087 344.37C487.736 346.339 486.513 350.821 485.289 352.763C485.196 352.909 483.879 354.558 483.387 355.13H483.467C485.477 353.898 487.591 352.843 489.785 351.978C491.744 351.202 493.747 350.54 495.783 349.996C497.658 349.478 499.414 349.105 500.97 348.799L503.311 348.387C503.311 348.387 505.904 346.658 506.077 346.565C508.139 345.541 512.727 344.783 514.509 346.565C514.798 346.879 515.018 347.251 515.155 347.655C515.291 348.06 515.341 348.489 515.301 348.914C515.261 349.339 515.132 349.751 514.922 350.123C514.712 350.495 514.427 350.819 514.084 351.074C513.296 351.56 512.412 351.869 511.493 351.977C510.574 352.085 509.642 351.99 508.764 351.699C506.836 350.898 505.043 349.808 503.444 348.467C502.699 348.6 501.901 348.746 501.023 348.932C499.467 349.278 497.738 349.677 495.863 350.262L494.333 350.754L496.647 350.542C498.948 350.542 503.364 352.018 504.109 354.532C504.223 354.944 504.248 355.376 504.183 355.799C504.118 356.222 503.964 356.626 503.732 356.986C503.499 357.345 503.194 357.651 502.834 357.884C502.475 358.116 502.071 358.27 501.648 358.335C500.727 358.4 499.802 358.263 498.938 357.935C498.075 357.607 497.293 357.094 496.647 356.434C495.313 354.832 494.228 353.039 493.429 351.114C492.298 351.499 491.141 351.912 489.957 352.444C487.806 353.33 485.74 354.412 483.786 355.675L483.454 355.915C483.906 355.795 486.42 355.263 486.593 355.25C488.88 355.037 493.429 355.981 494.44 358.349C494.59 358.742 494.656 359.163 494.635 359.584C494.613 360.004 494.503 360.416 494.313 360.792C494.122 361.167 493.855 361.499 493.529 361.766C493.203 362.032 492.824 362.227 492.418 362.339C491.509 362.508 490.573 362.476 489.678 362.247C488.782 362.017 487.947 361.594 487.231 361.009C485.703 359.513 484.404 357.802 483.374 355.928C481.457 357.237 479.627 358.667 477.894 360.211C476.564 361.355 475.354 362.565 474.104 363.788C474.689 363.629 477.03 363.15 477.203 363.137C479.49 362.924 484.039 363.855 485.05 366.222C485.207 366.62 485.279 367.046 485.261 367.473C485.242 367.9 485.134 368.319 484.944 368.702C484.753 369.084 484.484 369.422 484.154 369.694C483.824 369.966 483.44 370.165 483.028 370.279C482.119 370.448 481.184 370.416 480.288 370.187C479.392 369.957 478.557 369.535 477.841 368.949C476.318 367.468 475.022 365.769 473.997 363.908L472.308 365.571C470.46 367.406 468.624 369.255 466.749 371.01C466.097 371.622 465.419 372.207 464.781 372.793C465.672 372.593 467.294 372.247 467.441 372.234C469.728 372.021 474.277 372.965 475.288 375.333C475.445 375.73 475.517 376.157 475.498 376.584C475.48 377.011 475.372 377.429 475.181 377.812C474.991 378.195 474.722 378.533 474.392 378.805C474.062 379.076 473.678 379.276 473.266 379.389C472.357 379.558 471.421 379.527 470.526 379.297C469.63 379.067 468.795 378.645 468.079 378.059C466.587 376.642 465.326 374.999 464.342 373.192C463.238 374.162 462.121 375.093 460.977 375.945C460.485 376.317 459.993 376.716 459.487 377.035L458.011 378.019C456.987 378.658 456.029 379.256 455.045 379.828L453.609 380.666C454.473 380.32 455.856 379.802 455.989 379.775C458.224 379.216 462.865 379.456 464.222 381.637C464.438 382.004 464.576 382.411 464.626 382.834C464.676 383.257 464.637 383.685 464.512 384.092C464.386 384.499 464.178 384.875 463.899 385.197C463.62 385.518 463.277 385.778 462.892 385.96C462.019 386.261 461.091 386.369 460.172 386.275C459.253 386.181 458.366 385.887 457.572 385.414C455.846 384.186 454.313 382.707 453.023 381.025C451.853 381.704 450.696 382.355 449.592 382.927C446.679 384.497 444.139 385.733 442.157 386.664C435.72 392.051 426.676 392.663 426.676 392.663C426.676 392.663 426.197 381.85 432.568 374.721C434.789 372.334 437.503 370.46 440.521 369.228V369.228ZM451.986 379.788C451.113 377.939 450.496 375.979 450.151 373.963L449.087 373.737C448.426 377.156 447.067 380.402 445.097 383.273C446.267 382.714 447.53 382.103 448.86 381.411C449.871 380.919 450.922 380.36 451.986 379.788Z" fill="#2E353A"/>
<path d="M393.16 367.167C393.16 367.167 403.986 367.5 410.61 374.376C417.233 381.252 417.153 392.091 417.153 392.091C417.153 392.091 406.327 391.759 399.704 384.883C393.08 378.007 393.16 367.167 393.16 367.167Z" fill="#2E353A"/>
<path d="M421.462 374.136L410.822 364.573L411.288 364.068L421.462 373.218L421.516 360.69L421.462 360.729L412.472 347.576L413.03 347.19L421.529 359.612L421.649 329.461H422.34L422.247 349.93L429.017 344.065L429.469 344.583L422.247 350.834L422.181 365.464L432.448 356.394L432.9 356.899L422.181 366.382L422.114 379.695L429.828 373.644L430.254 374.189L422.114 380.573L422.074 389.152L421.396 389.138L421.462 374.136Z" fill="white"/>
<path d="M431.251 377.82L431.93 377.753L432.794 385.321L437.356 380.214L438.513 371.05L439.178 371.143L438.154 379.336L449.499 366.648L450.004 367.1L442.304 375.705L447.185 375.772L447.171 376.45L441.705 376.384L436.305 382.422L443.926 382.435V383.113L435.693 383.1L430.786 388.593L436.159 388.912L436.119 389.59L430.201 389.245L426.929 392.889L426.423 392.437L432.182 385.999L431.251 377.82Z" fill="white"/>
<path d="M405.556 380.52L396.512 378.684L396.645 378.019L404.744 379.669L392.934 367.393L393.426 366.927L401.433 375.253L401.858 370.385L402.536 370.452L402.071 375.905L407.684 381.73L408.256 374.136L408.947 374.189L408.322 382.395L413.429 387.702L414.147 382.355L414.826 382.448L414.028 388.327L417.433 391.851L416.94 392.33L410.942 386.106L402.723 386.425L402.696 385.747L410.317 385.454L405.569 380.52H405.556Z" fill="white"/>
<path d="M359.91 77.0271C351.237 77.0398 342.831 74.0246 336.143 68.5018C328.429 62.0912 325.862 54.1644 323.149 45.7588C318.56 31.5544 305.46 21.6459 291.229 21.6459C286.627 21.7128 282.087 22.7194 277.888 24.604C273.689 26.4885 269.919 29.2113 266.81 32.6051C263.405 36.4089 261.49 41.29 259.428 46.4504C257.367 51.6108 255.159 57.1968 251.236 61.8518C247.184 66.6276 242.137 70.4603 236.449 73.0815C230.76 75.7028 224.568 77.0494 218.305 77.0271C207.731 77.0396 197.502 73.265 189.471 66.3871C182.701 60.575 179.243 52.5684 176.011 44.1894C172.34 34.6799 167.791 24.9576 159.306 18.2012C151.45 11.8896 141.693 8.41683 131.616 8.34588C106.213 8.34588 85.5443 36.6882 85.5443 63.7005H79.2002C79.2002 32.9642 102.715 1.60278 131.616 1.60278C143.069 1.69953 154.154 5.6647 163.07 12.8546C172.779 20.5686 177.833 31.2618 181.836 41.6624C184.749 49.2035 187.821 56.3722 193.421 61.1868C200.35 67.0882 209.163 70.3151 218.265 70.284C223.626 70.3136 228.929 69.1706 233.802 66.9352C238.675 64.6998 243 61.426 246.474 57.3431C249.68 53.5393 251.555 48.8178 253.537 43.8303C255.718 38.3374 257.965 32.6583 262.168 27.9634C265.854 23.8902 270.347 20.6289 275.361 18.3871C280.376 16.1454 285.802 14.9724 291.295 14.9427C308.146 14.9427 323.721 26.7265 329.16 43.6042C331.82 51.6773 333.829 58.048 340.066 63.235C345.66 67.8201 352.677 70.3126 359.91 70.284C366.497 70.2209 372.889 68.0436 378.144 64.0729C382.56 60.7745 385.207 55.8934 388.013 50.7729C390.513 46.1578 393.107 41.3831 397.11 37.4729C403.213 31.4934 411.376 28.0806 419.92 27.9368C438.54 27.9368 453.741 44.0564 453.741 63.8468H447.397C447.397 47.7405 435.068 34.5868 419.92 34.5868C412.971 34.7205 406.337 37.5092 401.379 42.3806C398.108 45.5327 395.873 49.6557 393.506 54.0048C390.487 59.5775 387.361 65.3364 381.802 69.4993C375.502 74.2939 367.826 76.9334 359.91 77.0271Z" fill="#92E3A9" stroke="#2E353A" stroke-width="1.33" stroke-linecap="round" stroke-linejoin="round"/>
<path d="M85.5443 63.7405L93.9499 83.7969H87.8984L79.2002 63.7405H85.5443Z" fill="#92E3A9" stroke="#2E353A" stroke-width="1.33" stroke-linecap="round" stroke-linejoin="round"/>
<path d="M419.933 34.6802C412.984 34.8139 406.35 37.6026 401.393 42.474C398.121 45.6261 395.886 49.7491 393.519 54.0982C390.5 59.6709 387.375 65.4298 381.815 69.5927C375.201 74.5978 367.087 77.2147 358.795 77.0167C350.504 76.8186 342.523 73.8173 336.156 68.5021C328.442 62.0915 325.875 54.1647 323.162 45.7591C318.574 31.5547 305.473 21.6462 291.242 21.6462C286.638 21.7113 282.095 22.7171 277.894 24.6017C273.692 26.4863 269.921 29.2099 266.81 32.6054C263.405 36.4092 261.49 41.2903 259.428 46.4507C257.367 51.6111 255.159 57.1971 251.236 61.8521C247.184 66.6279 242.137 70.4606 236.449 73.0818C230.76 75.7031 224.568 77.0497 218.305 77.0274C207.731 77.0399 197.502 73.2653 189.47 66.3874C182.701 60.5753 179.243 52.5687 176.011 44.1897C172.34 34.6802 167.791 24.9579 159.306 18.2015C151.45 11.8899 141.693 8.41714 131.615 8.34619C106.212 8.34619 85.5443 36.6885 85.5443 63.7008L93.91 83.7971C93.91 58.0483 113.621 30.7301 137.8 30.7301C147.406 30.7987 156.708 34.1071 164.2 40.1199C172.287 46.5571 176.636 55.8272 180.16 64.8978C183.233 72.8778 186.531 80.5253 192.995 86.0714C200.658 92.6148 210.409 96.2002 220.486 96.1794C226.46 96.2017 232.366 94.9167 237.791 92.4147C243.215 89.9127 248.027 86.2541 251.887 81.6957C255.625 77.2668 257.699 72.0532 259.694 67.0657C261.689 62.0782 263.498 57.503 266.744 53.8721C269.712 50.6258 273.316 48.0231 277.33 46.2251C281.345 44.427 285.686 43.4717 290.085 43.4183C303.611 43.4183 316.113 52.8746 320.476 66.414C323.069 74.394 325.503 81.9883 332.871 88.1063C339.236 93.3578 347.23 96.2309 355.481 96.2326C363.017 96.1686 370.333 93.6833 376.349 89.1437C381.669 85.1537 384.635 79.6874 387.508 74.3674C389.769 70.2178 391.896 66.281 395.022 63.2885C399.746 58.6331 406.079 55.9714 412.711 55.8538C427.155 55.8538 438.912 68.3425 438.912 83.704L448.993 63.9402H447.304C447.411 47.7807 435.082 34.6802 419.933 34.6802Z" fill="#2E353A" stroke="#2E353A" stroke-width="1.33" stroke-linecap="round" stroke-linejoin="round"/>
<path d="M445.057 83.6508L453.755 63.887H447.411L439.018 83.6508H445.057Z" fill="#92E3A9" stroke="#2E353A" stroke-width="1.33" stroke-linecap="round" stroke-linejoin="round"/>
<path d="M427.607 84.9539H103.978V389.63H427.607V84.9539Z" fill="#92E3A9" stroke="#2E353A" stroke-width="1.33" stroke-linecap="round" stroke-linejoin="round"/>
<path opacity="0.3" d="M427.607 84.9539H103.978V389.63H427.607V84.9539Z" fill="black"/>
<path d="M270.8 84.9539H260.785V389.63H270.8V84.9539Z" fill="#2E353A" stroke="#2E353A" stroke-width="1.33" stroke-linecap="round" stroke-linejoin="round"/>
<path d="M135.526 329.475H127.652V401.428H135.526V329.475Z" fill="white" stroke="#2E353A" stroke-width="1.33" stroke-linecap="round" stroke-linejoin="round"/>
<path d="M270.999 329.475H263.126V401.428H270.999V329.475Z" fill="white" stroke="#2E353A" stroke-width="1.33" stroke-linecap="round" stroke-linejoin="round"/>
<path d="M408.721 329.475H400.847V401.428H408.721V329.475Z" fill="white" stroke="#2E353A" stroke-width="1.33" stroke-linecap="round" stroke-linejoin="round"/>
<path d="M411.674 325.538H122.438V335.819H411.674V325.538Z" fill="white" stroke="#2E353A" stroke-width="1.33" stroke-linecap="round" stroke-linejoin="round"/>
<path d="M411.527 325.538H122.585L139.928 315.988H394.184L411.527 325.538Z" fill="#2E353A" stroke="#2E353A" stroke-width="1.33" stroke-linecap="round" stroke-linejoin="round"/>
<path d="M116.214 89.4497H103.978V394.126H116.214V89.4497Z" fill="#2E353A" stroke="#2E353A" stroke-width="1.33" stroke-linecap="round" stroke-linejoin="round"/>
<path d="M102.821 89.4497H90.585V405.365H102.821V89.4497Z" fill="white" stroke="#2E353A" stroke-width="1.33" stroke-linecap="round" stroke-linejoin="round"/>
<path d="M443.381 89.4497H431.145V405.365H443.381V89.4497Z" fill="white" stroke="#2E353A" stroke-width="1.33" stroke-linecap="round" stroke-linejoin="round"/>
<path d="M489.093 428.134H496.9" stroke="#2E353A" stroke-width="1.33" stroke-linecap="round" stroke-linejoin="round"/>
<path d="M463.224 428.134H485.994" stroke="#2E353A" stroke-width="1.33" stroke-linecap="round" stroke-linejoin="round"/>
<path d="M60.6866 428.134H457.532" stroke="#2E353A" stroke-width="1.33" stroke-linecap="round" stroke-linejoin="round"/>
<path d="M20.76 428.134H52.4007" stroke="#2E353A" stroke-width="1.33" stroke-linecap="round" stroke-linejoin="round"/>
<path d="M488.574 443.203H496.9" stroke="#2E353A" stroke-width="1.33" stroke-linecap="round" stroke-linejoin="round"/>
<path d="M87.0738 443.203H482.882" stroke="#2E353A" stroke-width="1.33" stroke-linecap="round" stroke-linejoin="round"/>
<path d="M20.76 443.203H79.3066" stroke="#2E353A" stroke-width="1.33" stroke-linecap="round" stroke-linejoin="round"/>
<path d="M429.988 89.4497H417.752V394.126H429.988V89.4497Z" fill="#2E353A" stroke="#2E353A" stroke-width="1.33" stroke-linecap="round" stroke-linejoin="round"/>
<path d="M446.2 82.9058H85.9034V103.893H446.2V82.9058Z" fill="white" stroke="#2E353A" stroke-width="1.33" stroke-linecap="round" stroke-linejoin="round"/>
<path d="M56.0981 412.693L51.8687 416.164V133.472H56.0981V412.693Z" fill="#2E353A" stroke="#2E353A" stroke-width="1.33" stroke-linecap="round" stroke-linejoin="round"/>
<path d="M63.6392 148.621H44.3409V59.1521L63.6392 64.3524V148.621Z" fill="#2E353A" stroke="#2E353A" stroke-width="1.33" stroke-linecap="round" stroke-linejoin="round"/>
<path d="M61.7639 139.91H46.2162V67.8635L61.7639 71.3747V139.91Z" fill="#92E3A9" stroke="#2E353A" stroke-width="1.33" stroke-linecap="round" stroke-linejoin="round"/>
<path d="M306.71 225.548C308.147 226.327 309.37 227.445 310.275 228.806C311.179 230.167 311.736 231.729 311.897 233.355C312.615 239.114 324.918 277.644 324.918 280.53C324.918 283.416 319.052 287.779 313.998 287.779C308.944 287.779 305.593 269.997 305.593 269.997L306.71 225.548Z" fill="white" stroke="#2E353A" stroke-width="1.33" stroke-linecap="round" stroke-linejoin="round"/>
<path d="M309.596 239.912L306.165 249.063L311.884 244.488" stroke="#2E353A" stroke-width="0.665" stroke-linecap="round" stroke-linejoin="round"/>
<path d="M240.596 225.482C240.596 225.482 234.478 228.288 233.52 233.582C232.563 238.875 222.92 283.696 223.452 285.864C223.984 288.032 237.63 291.623 239.784 290.665C241.939 289.708 242.87 265.675 242.87 265.675L240.596 225.482Z" fill="white" stroke="#2E353A" stroke-width="1.33" stroke-linecap="round" stroke-linejoin="round"/>
<path d="M242.378 249.063L236.659 237.053" stroke="#2E353A" stroke-width="0.665" stroke-linecap="round" stroke-linejoin="round"/>
<path d="M241.527 250.499L234.371 243.344" stroke="#2E353A" stroke-width="0.665" stroke-linecap="round" stroke-linejoin="round"/>
<path d="M262.581 217.262C262.581 217.262 241.54 223.912 240.596 225.482C239.651 227.051 245.45 286.662 245.45 290.479C245.45 294.296 246.953 297.248 252.606 298.938C258.258 300.627 284.033 300.268 290.245 299.696C296.456 299.124 303.225 294.801 303.797 290.851C304.369 286.901 306.816 229.152 307.375 226.386C307.614 225.162 302.773 223.181 297.799 221.186C293.503 219.47 283.089 215.014 279.179 215.014C275.269 215.014 269.922 213.884 262.581 217.262Z" fill="white" stroke="#2E353A" stroke-width="1.33" stroke-linecap="round" stroke-linejoin="round"/>
<path d="M276.12 282.273C275.654 283.954 275.364 285.679 275.256 287.42C275.256 289.428 279.831 288.856 279.831 291.716C279.831 294.575 274.684 297.142 274.684 297.142" stroke="#2E353A" stroke-width="0.665" stroke-linecap="round" stroke-linejoin="round"/>
<path d="M260.639 283.284C260.639 283.284 266.624 290.346 287.239 286.821" stroke="#2E353A" stroke-width="0.665" stroke-linecap="round" stroke-linejoin="round"/>
<path d="M266.344 212.94C266.344 212.94 261.45 214.27 260.506 216.132C259.561 217.994 261.078 220.654 261.264 222.782C261.45 224.91 258.604 232.943 258.604 232.943C258.604 232.943 264.243 232.757 265.254 233.502C266.265 234.246 275.788 240.843 275.788 240.843C275.788 240.843 278.993 232.943 282.757 231.813C286.521 230.682 289.912 229.552 289.912 229.552C289.912 229.552 285.39 223.154 283.887 218.074C282.384 212.993 272.742 209.362 266.344 212.94Z" fill="#2E353A" stroke="#2E353A" stroke-width="1.33" stroke-linecap="round" stroke-linejoin="round"/>
<path d="M264.27 209.362C264.27 209.362 267.661 224.231 267.847 233.302C268.034 242.373 262.394 262.283 265.028 267.882C267.661 273.481 274.817 279.174 275.375 279.174C275.934 279.174 281.214 269.385 281.586 262.416C281.959 255.447 276.506 237.385 278.195 229.485C279.343 223.271 280.036 216.981 280.27 210.665L264.27 209.362Z" fill="white" stroke="#2E353A" stroke-width="1.33" stroke-linecap="round" stroke-linejoin="round"/>
<g style="mix-blend-mode:multiply" opacity="0.54">
<path d="M264.27 209.362C264.27 209.362 264.975 212.461 265.759 216.69C268.607 218.335 271.864 219.133 275.149 218.991C276.773 218.903 278.362 218.482 279.817 217.754C280.163 213.764 280.27 210.679 280.27 210.679L264.27 209.362Z" fill="#92E3A9"/>
</g>
<path d="M275.375 279.187C275.947 279.187 281.214 269.398 281.586 262.429C281.959 255.46 276.506 237.398 278.195 229.498C278.363 228.691 278.523 227.853 278.674 226.984C277.425 227.274 276.151 227.434 274.87 227.463C272.251 227.559 269.646 227.059 267.249 226C267.571 228.409 267.771 230.833 267.847 233.262C268.034 242.293 262.394 262.243 265.028 267.842C267.661 273.441 274.79 279.187 275.375 279.187Z" fill="white" stroke="#2E353A" stroke-width="1.33" stroke-linecap="round" stroke-linejoin="round"/>
<path d="M310.062 282.818C310.062 282.818 344.908 307.835 345.187 310.642C345.466 313.448 329.453 331.164 323.548 330.592C317.643 330.02 297.4 295.187 297.4 295.187L310.062 282.818Z" fill="#92E3A9" stroke="#2E353A" stroke-width="1.33" stroke-linecap="round" stroke-linejoin="round"/>
<path d="M250.331 221.691L305.393 293.072L309.476 283.696L258.032 218.832L250.331 221.691Z" fill="#92E3A9" stroke="#2E353A" stroke-width="1.33" stroke-linecap="round" stroke-linejoin="round"/>
<path d="M236.659 380.068L237.151 390.708C237.151 390.708 229.45 396.028 226.085 398.156C222.721 400.284 216.962 403.675 218.877 405.125C220.792 406.575 246.807 405.125 246.807 405.125C246.807 405.125 247.525 404.646 247.525 401.521C247.525 398.395 247.046 384.457 247.046 384.457L236.659 380.068Z" fill="white" stroke="#2E353A" stroke-width="1.33" stroke-linecap="round" stroke-linejoin="round"/>
<path d="M247.472 401.454C247.472 400.576 247.472 398.794 247.379 396.786L239.545 397.371C239.545 397.371 239.545 396.4 239.306 393.514C239.066 390.628 237.151 390.641 237.151 390.641C237.151 390.641 229.45 395.961 226.085 398.089C222.721 400.217 216.962 403.609 218.877 405.058C220.792 406.508 246.807 405.058 246.807 405.058C246.807 405.058 247.472 404.633 247.472 401.454Z" fill="#2E353A" stroke="#2E353A" stroke-width="1.33" stroke-linecap="round" stroke-linejoin="round"/>
<path d="M218.757 403.609C218.411 404.181 218.385 404.686 218.877 405.059C220.805 406.495 246.807 405.059 246.807 405.059C246.807 405.059 247.153 404.806 247.365 403.609H218.757Z" fill="white" stroke="#2E353A" stroke-width="1.33" stroke-linecap="round" stroke-linejoin="round"/>
<path d="M305.154 380.068L304.675 390.708C304.675 390.708 312.363 396.028 315.727 398.156C319.092 400.284 324.851 403.675 322.936 405.125C321.021 406.575 295.006 405.125 295.006 405.125C295.006 405.125 294.288 404.646 294.288 401.521C294.288 398.395 294.767 384.457 294.767 384.457L305.154 380.068Z" fill="white" stroke="#2E353A" stroke-width="1.33" stroke-linecap="round" stroke-linejoin="round"/>
<path d="M294.341 401.454C294.341 400.576 294.341 398.794 294.434 396.786L302.268 397.371C302.268 397.371 302.268 396.4 302.507 393.514C302.747 390.628 304.675 390.641 304.675 390.641C304.675 390.641 312.363 395.961 315.727 398.089C319.092 400.217 324.851 403.609 322.936 405.058C321.021 406.508 295.006 405.058 295.006 405.058C295.006 405.058 294.341 404.633 294.341 401.454Z" fill="#2E353A" stroke="#2E353A" stroke-width="1.33" stroke-linecap="round" stroke-linejoin="round"/>
<path d="M323.056 403.609C323.415 404.181 323.428 404.686 322.936 405.059C321.008 406.495 295.006 405.059 295.006 405.059C295.006 405.059 294.66 404.806 294.447 403.609H323.056Z" fill="white" stroke="#2E353A" stroke-width="1.33" stroke-linecap="round" stroke-linejoin="round"/>
<path d="M247.232 295.479C247.232 295.479 231.139 300.52 225.367 304.603C219.595 308.686 222.707 317.345 228.732 322.864C234.757 328.384 243.628 332.001 250.118 329.115C256.609 326.229 263.818 319.739 273.433 319.739C283.049 319.739 291.455 327.2 300.033 330.312C308.612 333.424 319.983 323.343 322.151 314.937C324.319 306.532 318.906 297.142 305.566 298.113C277.357 300.174 271.425 302.223 247.232 295.479Z" fill="#2E353A" stroke="#2E353A" stroke-width="1.33" stroke-linecap="round" stroke-linejoin="round"/>
<path d="M230.421 305.082C230.421 305.082 222.242 302.688 219.848 310.402C217.454 318.116 223.931 361.82 225.168 370.252C226.405 378.685 226.125 380.108 226.125 380.108C226.125 380.108 236.459 381.783 239.824 383.712C243.189 385.64 248.483 385.627 248.483 385.627C248.483 385.627 243.668 354.385 244.639 347.177C245.61 339.968 249.44 334.928 248.483 327.48C247.525 320.032 241.035 310.19 241.035 310.19" fill="#2E353A"/>
<path d="M230.421 305.082C230.421 305.082 222.242 302.688 219.848 310.402C217.454 318.116 223.931 361.82 225.168 370.252C226.405 378.685 226.125 380.108 226.125 380.108C226.125 380.108 236.459 381.783 239.824 383.712C243.189 385.64 248.483 385.627 248.483 385.627C248.483 385.627 243.668 354.385 244.639 347.177C245.61 339.968 249.44 334.928 248.483 327.48C247.525 320.032 241.035 310.19 241.035 310.19" stroke="#2E353A" stroke-width="1.33" stroke-linecap="round" stroke-linejoin="round"/>
<path d="M311.751 305.082C311.751 305.082 319.917 302.688 322.324 310.402C324.731 318.116 318.228 361.82 317.004 370.252C315.781 378.685 316.047 380.108 316.047 380.108C316.047 380.108 305.712 381.783 302.348 383.712C298.983 385.64 293.689 385.627 293.689 385.627C293.689 385.627 298.504 354.385 297.546 347.177C296.589 339.968 292.732 334.928 293.689 327.48C294.647 320.032 301.151 310.19 301.151 310.19" fill="#2E353A"/>
<path d="M311.751 305.082C311.751 305.082 319.917 302.688 322.324 310.402C324.731 318.116 318.228 361.82 317.004 370.252C315.781 378.685 316.047 380.108 316.047 380.108C316.047 380.108 305.712 381.783 302.348 383.712C298.983 385.64 293.689 385.627 293.689 385.627C293.689 385.627 298.504 354.385 297.546 347.177C296.589 339.968 292.732 334.928 293.689 327.48C294.647 320.032 301.151 310.19 301.151 310.19" stroke="#2E353A" stroke-width="1.33" stroke-linecap="round" stroke-linejoin="round"/>
<path d="M300.565 311.785C297.861 316.281 295.632 321.046 293.915 326.003C293.623 321.456 294.828 316.939 297.347 313.142" stroke="white" stroke-width="0.665" stroke-linecap="round" stroke-linejoin="round"/>
<path d="M305.885 305.987C304.846 306.643 303.913 307.455 303.119 308.394" stroke="white" stroke-width="0.665" stroke-linecap="round" stroke-linejoin="round"/>
<path d="M240.09 310.562C240.09 310.562 248.07 320.856 248.389 328.291" stroke="white" stroke-width="0.665" stroke-linecap="round" stroke-linejoin="round"/>
<path d="M245.237 312.57C246.674 316.002 246.674 318.861 248.389 325.431" stroke="white" stroke-width="0.665" stroke-linecap="round" stroke-linejoin="round"/>
<path d="M233.773 373.697L222.641 338.598" stroke="white" stroke-width="0.665" stroke-linecap="round" stroke-linejoin="round"/>
<path d="M235.515 379.217L234.398 375.679" stroke="white" stroke-width="0.665" stroke-linecap="round" stroke-linejoin="round"/>
<path d="M310.461 372.247L317.603 351.459" stroke="white" stroke-width="0.665" stroke-linecap="round" stroke-linejoin="round"/>
<path d="M308.173 378.924L309.49 375.08" stroke="white" stroke-width="0.665" stroke-linecap="round" stroke-linejoin="round"/>
<path d="M250.917 179.863L254.481 195.291C254.481 195.291 250.345 192.631 250.345 196.421C250.345 200.212 252.047 202.247 254.335 203.071C255.737 203.523 257.235 203.587 258.67 203.257C259.763 205.543 261.295 207.59 263.179 209.282C266.535 212.287 270.911 213.9 275.415 213.791C279.738 213.791 285.39 209.468 286.893 204.388C288.396 199.307 283.501 189.758 282.757 183.307C282.012 176.857 288.21 177.096 285.417 171.829C282.624 166.563 267.542 165.618 258.311 167.839C249.081 170.061 250.917 179.863 250.917 179.863Z" fill="white" stroke="#2E353A" stroke-width="1.33" stroke-linecap="round" stroke-linejoin="round"/>
<path d="M280.828 185.648C280.359 185.73 279.914 185.915 279.525 186.19C279.136 186.464 278.812 186.822 278.578 187.237C278.344 187.652 278.205 188.113 278.171 188.588C278.137 189.063 278.209 189.54 278.381 189.984C278.745 191.985 279.817 193.788 281.4 195.065C281.4 195.065 282.344 197.884 278.009 197.512" stroke="#2E353A" stroke-width="1.33" stroke-linecap="round" stroke-linejoin="round"/>
<path d="M272.888 187.005C271.669 186.6 270.353 186.591 269.128 186.977C267.903 187.364 266.831 188.128 266.065 189.159" stroke="#2E353A" stroke-width="1.33" stroke-linecap="round" stroke-linejoin="round"/>
<path d="M272.915 192.431C273.088 193.242 272.915 193.974 272.409 194.08C271.904 194.187 271.438 193.615 271.252 192.75C271.066 191.886 271.252 191.194 271.744 191.088C272.236 190.981 272.728 191.62 272.915 192.431Z" fill="#2E353A"/>
<path d="M281.56 190.503C281.746 191.314 281.56 192.059 281.068 192.165C280.575 192.272 280.097 191.687 279.911 190.835C279.724 189.984 279.91 189.293 280.403 189.186C280.895 189.08 281.44 189.732 281.56 190.503Z" fill="#2E353A"/>
<path d="M280.456 202.406L277.636 202.779" stroke="#2E353A" stroke-width="1.33" stroke-linecap="round" stroke-linejoin="round"/>
<path d="M257.567 296.677L260.931 300.52L255.651 304.603L252.526 301.957L257.567 296.677Z" fill="#2E353A" stroke="#2E353A" stroke-width="1.33" stroke-linecap="round" stroke-linejoin="round"/>
<path d="M235.462 277.445C235.462 277.445 236.898 276.727 240.263 278.895C243.628 281.062 259.495 294.243 258.298 297.155C257.67 298.6 256.671 299.853 255.403 300.787C254.135 301.721 252.642 302.304 251.076 302.475C247.724 302.954 232.576 293.578 228.466 290.931C224.356 288.284 223.146 287.087 223.425 285.89C223.705 284.693 223.186 281.329 226.085 279.879" fill="white"/>
<path d="M235.462 277.445C235.462 277.445 236.898 276.727 240.263 278.895C243.628 281.062 259.495 294.243 258.298 297.155C257.67 298.6 256.671 299.853 255.403 300.787C254.135 301.721 252.642 302.304 251.076 302.475C247.724 302.954 232.576 293.578 228.466 290.931C224.356 288.284 223.146 287.087 223.425 285.89C223.705 284.693 223.186 281.329 226.085 279.879" stroke="#2E353A" stroke-width="1.33" stroke-linecap="round" stroke-linejoin="round"/>
<path d="M288.329 294.748L283.768 298.352L288.569 303.646L292.652 300.041L288.329 294.748Z" fill="#2E353A" stroke="#2E353A" stroke-width="1.33" stroke-linecap="round" stroke-linejoin="round"/>
<path d="M313.081 275.53C313.081 275.53 307.561 276.966 304.914 279.373C301.554 282.143 298.052 284.736 294.421 287.14C292.253 288.71 289.407 290 287.771 292.248C285.616 295.32 287.904 297.036 290.125 299.243C295.511 304.563 302.028 299.935 307.109 296.916C312.19 293.897 317.855 291.037 322.165 287.061C325.29 284.175 326.008 279.373 322.404 276.421" fill="white"/>
<path d="M313.081 275.53C313.081 275.53 307.561 276.966 304.914 279.373C301.554 282.143 298.052 284.736 294.421 287.14C292.253 288.71 289.407 290 287.771 292.248C285.616 295.32 287.904 297.036 290.125 299.243C295.511 304.563 302.028 299.935 307.109 296.916C312.19 293.897 317.855 291.037 322.165 287.061C325.29 284.175 326.008 279.373 322.404 276.421" stroke="#2E353A" stroke-width="1.33" stroke-linecap="round" stroke-linejoin="round"/>
<path d="M260.931 300.52C263.094 301.331 265.121 302.465 266.943 303.885C268.619 305.561 271.505 314.459 271.505 316.387C271.505 318.316 271.744 320.231 270.308 320.231C268.872 320.231 267.901 319.021 267.182 319.021C266.464 319.021 263.818 317.345 261.41 315.895C259.003 314.445 257.327 309.897 256.609 307.729C255.891 305.561 255.651 304.603 255.651 304.603L260.931 300.52Z" fill="white" stroke="#2E353A" stroke-width="1.33" stroke-linecap="round" stroke-linejoin="round"/>
<path d="M265.586 318.183L261.756 312.81" stroke="#2E353A" stroke-width="0.665" stroke-linecap="round" stroke-linejoin="round"/>
<path d="M268.206 319.407L264.522 311.732" stroke="#2E353A" stroke-width="0.665" stroke-linecap="round" stroke-linejoin="round"/>
<path d="M270.813 319.566L267.435 310.655" stroke="#2E353A" stroke-width="0.665" stroke-linecap="round" stroke-linejoin="round"/>
<path d="M283.767 298.352C281.678 299.848 279.672 301.455 277.756 303.167C276.08 304.843 273.194 313.807 273.194 315.656C273.194 317.504 272.955 319.499 274.391 319.499C275.827 319.499 276.798 318.302 277.516 318.302C278.235 318.302 280.881 316.626 283.289 315.177C285.696 313.727 287.372 309.165 288.09 307.011C288.513 305.942 288.677 304.789 288.569 303.646L283.767 298.352Z" fill="white" stroke="#2E353A" stroke-width="1.33" stroke-linecap="round" stroke-linejoin="round"/>
<path d="M274.391 319.5L277.876 310.815" stroke="#2E353A" stroke-width="0.665" stroke-linecap="round" stroke-linejoin="round"/>
<path d="M276.958 318.489L281.254 310.509" stroke="#2E353A" stroke-width="0.665" stroke-linecap="round" stroke-linejoin="round"/>
<path d="M280.788 316.64L283.701 311.121" stroke="#2E353A" stroke-width="0.665" stroke-linecap="round" stroke-linejoin="round"/>
<path d="M285.35 171.723C282.531 166.403 267.475 165.512 258.245 167.733C249.015 169.954 250.917 179.783 250.917 179.783L254.308 194.413L255.239 195.57C255.239 195.57 256.569 196.7 257.128 195.384C257.686 194.067 255.239 190.676 256.183 189.359C257.128 188.042 260.891 189.359 259.761 184.85C258.63 180.341 258.63 177.509 263.897 175.62C269.164 173.731 275.561 172.96 278.381 175.061C281.201 177.163 282.717 183.148 282.717 183.148C281.959 176.804 288.17 176.99 285.35 171.723Z" fill="#2E353A" stroke="#2E353A" stroke-width="1.33" stroke-linecap="round" stroke-linejoin="round"/>
<path d="M252.273 178.786C253.921 179.047 255.6 179.047 257.247 178.786C259.907 178.347 260.506 172.894 269.47 171.604C278.434 170.314 278.381 175.115 278.381 175.115C278.381 175.115 283.275 170.154 281.254 168.585C279.232 167.015 264.895 167.374 258.83 172.455" stroke="white" stroke-width="0.665" stroke-linecap="round" stroke-linejoin="round"/>
<path d="M339.002 314.392C338.475 315.028 337.907 315.628 337.3 316.188" stroke="#2E353A" stroke-width="0.665" stroke-linecap="round" stroke-linejoin="round"/>
<path d="M325.104 297.422C325.104 297.422 341.144 308.301 340.878 310.722C340.827 311.131 340.715 311.53 340.545 311.905" stroke="#2E353A" stroke-width="0.665" stroke-linecap="round" stroke-linejoin="round"/>
</svg>
