<svg width="80" height="81" viewBox="0 0 80 81" fill="none" xmlns="http://www.w3.org/2000/svg">
<g clip-path="url(#clip0_3_2458)">
<path d="M0.190033 80.9228L5.81337 60.3795C2.34337 54.3662 0.520033 47.5495 0.523366 40.5595C0.533366 18.7062 18.3167 0.922852 40.1667 0.922852C50.77 0.926185 60.7234 5.05618 68.21 12.5495C75.6934 20.0429 79.8134 30.0029 79.81 40.5962C79.8 62.4529 62.0167 80.2362 40.1667 80.2362C33.5334 80.2329 26.9967 78.5695 21.2067 75.4095L0.190033 80.9228V80.9228ZM22.18 68.2329C27.7667 71.5495 33.1 73.5362 40.1534 73.5395C58.3134 73.5395 73.1067 58.7595 73.1167 40.5895C73.1234 22.3829 58.4 7.62285 40.18 7.61618C22.0067 7.61618 7.22337 22.3962 7.2167 40.5629C7.21337 47.9795 9.3867 53.5328 13.0367 59.3428L9.7067 71.5028L22.18 68.2329V68.2329ZM60.1367 50.0195C59.89 49.6062 59.23 49.3595 58.2367 48.8629C57.2467 48.3662 52.3767 45.9695 51.4667 45.6395C50.56 45.3095 49.9 45.1429 49.2367 46.1362C48.5767 47.1262 46.6767 49.3595 46.1 50.0195C45.5234 50.6795 44.9434 50.7629 43.9534 50.2662C42.9634 49.7695 39.77 48.7262 35.9867 45.3495C33.0434 42.7229 31.0534 39.4795 30.4767 38.4862C29.9 37.4962 30.4167 36.9595 30.91 36.4662C31.3567 36.0229 31.9 35.3095 32.3967 34.7295C32.9 34.1562 33.0634 33.7429 33.3967 33.0795C33.7267 32.4195 33.5634 31.8395 33.3134 31.3429C33.0634 30.8495 31.0834 25.9729 30.26 23.9895C29.4534 22.0595 28.6367 22.3195 28.03 22.2895L26.13 22.2562C25.47 22.2562 24.3967 22.5029 23.49 23.4962C22.5834 24.4895 20.0234 26.8829 20.0234 31.7595C20.0234 36.6362 23.5734 41.3462 24.0667 42.0062C24.5634 42.6662 31.05 52.6729 40.9867 56.9629C43.35 57.9829 45.1967 58.5928 46.6334 59.0495C49.0067 59.8028 51.1667 59.6962 52.8734 59.4428C54.7767 59.1595 58.7334 57.0462 59.56 54.7328C60.3867 52.4162 60.3867 50.4329 60.1367 50.0195V50.0195Z" fill="#52BD82"/>
</g>
<defs>
<clipPath id="clip0_3_2458">
<rect width="80" height="80" fill="white" transform="translate(0 0.922852)"/>
</clipPath>
</defs>
</svg>
