<svg width="80" height="81" viewBox="0 0 80 81" fill="none" xmlns="http://www.w3.org/2000/svg">
<g clip-path="url(#clip0_3_2462)">
<path d="M80 16.1127C77.0567 17.4193 73.8933 18.2993 70.5733 18.696C73.9633 16.666 76.5667 13.4493 77.79 9.61602C74.62 11.496 71.1067 12.8627 67.3667 13.5993C64.3767 10.4093 60.1067 8.41602 55.3867 8.41602C44.79 8.41602 37.0033 18.3027 39.3967 28.566C25.76 27.8827 13.6667 21.3493 5.57 11.4193C1.27 18.796 3.34 28.446 10.6467 33.3327C7.96 33.246 5.42667 32.5093 3.21667 31.2793C3.03667 38.8827 8.48667 45.996 16.38 47.5793C14.07 48.206 11.54 48.3527 8.96667 47.8593C11.0533 54.3793 17.1133 59.1227 24.3 59.256C17.4 64.666 8.70667 67.0827 0 66.056C7.26333 70.7127 15.8933 73.4294 25.16 73.4294C55.6333 73.4294 72.85 47.6927 71.81 24.6093C75.0167 22.2927 77.8 19.4027 80 16.1127Z" fill="#52BD82"/>
</g>
<defs>
<clipPath id="clip0_3_2462">
<rect width="80" height="80" fill="white" transform="translate(0 0.922852)"/>
</clipPath>
</defs>
</svg>
