<svg width="80" height="81" viewBox="0 0 80 81" fill="none" xmlns="http://www.w3.org/2000/svg">
<g clip-path="url(#clip0_3_2456)">
<path d="M40 8.13285C50.68 8.13285 51.9467 8.17285 56.1667 8.36618C67.0067 8.85952 72.07 14.0029 72.5633 24.7629C72.7567 28.9795 72.7933 30.2462 72.7933 40.9262C72.7933 51.6095 72.7533 52.8729 72.5633 57.0895C72.0667 67.8395 67.0167 72.9928 56.1667 73.4862C51.9467 73.6795 50.6867 73.7195 40 73.7195C29.32 73.7195 28.0533 73.6795 23.8367 73.4862C12.97 72.9895 7.93333 67.8229 7.44 57.0862C7.24667 52.8695 7.20667 51.6062 7.20667 40.9229C7.20667 30.2429 7.25 28.9795 7.44 24.7595C7.93667 14.0029 12.9867 8.85618 23.8367 8.36285C28.0567 8.17285 29.32 8.13285 40 8.13285ZM40 0.922852C29.1367 0.922852 27.7767 0.969518 23.51 1.16285C8.98333 1.82952 0.91 9.88952 0.243333 24.4295C0.0466667 28.6995 0 30.0595 0 40.9229C0 51.7862 0.0466667 53.1495 0.24 57.4162C0.906667 71.9428 8.96667 80.0162 23.5067 80.6828C27.7767 80.8762 29.1367 80.9229 40 80.9229C50.8633 80.9229 52.2267 80.8762 56.4933 80.6828C71.0067 80.0162 79.1 71.9562 79.7567 57.4162C79.9533 53.1495 80 51.7862 80 40.9229C80 30.0595 79.9533 28.6995 79.76 24.4329C79.1067 9.91952 71.0367 1.83285 56.4967 1.16618C52.2267 0.969518 50.8633 0.922852 40 0.922852V0.922852ZM40 20.3829C28.6567 20.3829 19.46 29.5795 19.46 40.9229C19.46 52.2662 28.6567 61.4662 40 61.4662C51.3433 61.4662 60.54 52.2695 60.54 40.9229C60.54 29.5795 51.3433 20.3829 40 20.3829ZM40 54.2562C32.6367 54.2562 26.6667 48.2895 26.6667 40.9229C26.6667 33.5595 32.6367 27.5895 40 27.5895C47.3633 27.5895 53.3333 33.5595 53.3333 40.9229C53.3333 48.2895 47.3633 54.2562 40 54.2562ZM61.3533 14.7729C58.7 14.7729 56.55 16.9229 56.55 19.5729C56.55 22.2229 58.7 24.3729 61.3533 24.3729C64.0033 24.3729 66.15 22.2229 66.15 19.5729C66.15 16.9229 64.0033 14.7729 61.3533 14.7729Z" fill="#52BD82"/>
</g>
<defs>
<clipPath id="clip0_3_2456">
<rect width="80" height="80" fill="white" transform="translate(0 0.922852)"/>
</clipPath>
</defs>
</svg>
