<svg width="444" height="356" viewBox="0 0 444 356" fill="none" xmlns="http://www.w3.org/2000/svg">
<path d="M430.562 154.066C427.634 146.824 423.334 140.499 418.004 135.596C395.487 114.609 290.113 18.9975 238.267 17.0145C180.024 14.7611 -10.5501 275.651 7.15662 300.191C24.8634 324.73 243.875 361.498 269.487 354.272C295.099 347.046 415.787 208.448 426.976 192.629C436.822 178.711 434.63 164.356 430.562 154.066Z" fill="#92E3A9"/>
<path opacity="0.7" d="M430.562 154.066C427.634 146.824 423.334 140.499 418.004 135.596C395.487 114.609 290.113 18.9975 238.267 17.0145C180.024 14.7611 -10.5501 275.651 7.15662 300.191C24.8634 324.73 243.875 361.498 269.487 354.272C295.099 347.046 415.787 208.448 426.976 192.629C436.822 178.711 434.63 164.356 430.562 154.066Z" fill="white"/>
<g opacity="0.3">
<path opacity="0.3" d="M339.004 0.999999L321 38.8147L386.466 69.9841L404.47 32.1694L339.004 0.999999Z" stroke="black" stroke-width="0.874" stroke-miterlimit="10"/>
<path opacity="0.3" d="M346.638 9.11244C346.062 10.3207 345.029 11.2508 343.767 11.6981C342.505 12.1455 341.118 12.0737 339.909 11.4985C339.718 11.4104 339.534 11.3081 339.358 11.1926L329.019 32.9289C329.219 32.9917 329.414 33.0677 329.604 33.1562C330.813 33.7345 331.743 34.7688 332.191 36.0321C332.638 37.2954 332.566 38.6845 331.99 39.8947C331.946 39.9878 331.896 40.0783 331.842 40.1657L378.618 62.4264C378.618 62.3303 378.697 62.2342 378.74 62.138C379.315 60.9282 380.347 59.9962 381.609 59.5471C382.871 59.0981 384.26 59.1686 385.47 59.7433C385.66 59.8377 385.843 59.9428 386.021 60.0579L396.36 38.3477C396.16 38.2819 395.965 38.2031 395.775 38.1118C394.577 37.529 393.658 36.4961 393.22 35.2385C392.781 33.981 392.857 32.6008 393.432 31.3994C393.52 31.2085 393.623 31.0245 393.738 30.8488L346.866 8.55308C346.802 8.74414 346.726 8.93097 346.638 9.11244V9.11244ZM370.236 39.0382C369.534 40.5213 368.408 41.7624 366.999 42.6044C365.591 43.4464 363.964 43.8512 362.326 43.7676C360.687 43.684 359.11 43.1157 357.794 42.1348C356.479 41.1538 355.485 39.8044 354.937 38.2576C354.39 36.7108 354.314 35.0362 354.719 33.4462C355.124 31.8562 355.993 30.4223 357.214 29.3264C358.435 28.2305 359.954 27.5218 361.579 27.2903C363.203 27.0587 364.86 27.3147 366.338 28.0258C367.319 28.4945 368.198 29.1519 368.925 29.9604C369.652 30.7689 370.212 31.7126 370.574 32.7376C370.936 33.7627 371.092 34.8491 371.035 35.9346C370.977 37.0202 370.705 38.0837 370.236 39.0644V39.0382Z" stroke="black" stroke-width="0.874" stroke-miterlimit="10"/>
</g>
<g opacity="0.3">
<path opacity="0.3" d="M31.0043 56L13 93.8147L78.4656 124.984L96.4699 87.1694L31.0043 56Z" stroke="black" stroke-width="0.874" stroke-miterlimit="10"/>
<path opacity="0.3" d="M38.6203 64.1274C38.3357 64.7264 37.9357 65.2635 37.4433 65.7078C36.9508 66.1521 36.3755 66.4949 35.7504 66.7165C35.1253 66.9381 34.4626 67.0343 33.8002 66.9994C33.1379 66.9646 32.4889 66.7994 31.8905 66.5134C31.6996 66.4253 31.5156 66.323 31.3399 66.2075L21.0005 87.9176C21.1972 87.9781 21.3899 88.0511 21.5773 88.1361C22.1764 88.4207 22.7135 88.8207 23.1578 89.3132C23.602 89.8057 23.9448 90.3809 24.1665 91.0061C24.3881 91.6312 24.4842 92.2939 24.4494 92.9562C24.4145 93.6186 24.2494 94.2675 23.9633 94.8659C23.9196 94.9621 23.8672 95.0495 23.8148 95.1456L70.5913 117.415L70.7136 117.127C70.9982 116.528 71.3982 115.991 71.8907 115.546C72.3831 115.102 72.9584 114.759 73.5835 114.538C74.2087 114.316 74.8714 114.22 75.5337 114.255C76.196 114.29 76.845 114.455 77.4434 114.741C77.6343 114.829 77.8184 114.931 77.994 115.047L88.3422 93.3801C88.1412 93.3102 87.9489 93.2403 87.7566 93.1529C87.1547 92.8667 86.6153 92.4643 86.1696 91.9687C85.7239 91.4731 85.3807 90.8942 85.1597 90.2654C84.9387 89.6366 84.8443 88.9703 84.882 88.3048C84.9197 87.6394 85.0888 86.988 85.3793 86.3881C85.4675 86.2001 85.5697 86.0189 85.6852 85.8463L38.8476 63.5418C38.7886 63.7431 38.7126 63.939 38.6203 64.1274V64.1274ZM62.2183 94.0531C61.5151 95.5305 60.3898 96.7663 58.9845 97.6044C57.5793 98.4425 55.9572 98.8453 54.3231 98.7619C52.689 98.6785 51.1163 98.1127 49.8037 97.1358C48.4911 96.159 47.4974 94.8151 46.9483 93.2738C46.3991 91.7325 46.3191 90.063 46.7184 88.4763C47.1176 86.8895 47.9782 85.4567 49.1914 84.3589C50.4046 83.261 51.9159 82.5474 53.5346 82.3081C55.1532 82.0688 56.8064 82.3146 58.2853 83.0145C59.2684 83.481 60.15 84.1366 60.8797 84.9438C61.6095 85.7511 62.173 86.6941 62.5382 87.7192C62.9035 88.7442 63.0632 89.8312 63.0083 90.918C62.9534 92.0048 62.685 93.0701 62.2183 94.0531V94.0531Z" stroke="black" stroke-width="0.874" stroke-miterlimit="10"/>
</g>
<g opacity="0.3">
<path opacity="0.3" d="M377.004 100L359 137.815L424.466 168.984L442.47 131.169L377.004 100Z" stroke="black" stroke-width="0.874" stroke-miterlimit="10"/>
<path opacity="0.3" d="M384.645 108.154C384.361 108.754 383.96 109.293 383.467 109.738C382.974 110.183 382.399 110.527 381.773 110.749C381.147 110.972 380.483 111.068 379.82 111.034C379.156 111 378.506 110.835 377.907 110.549C377.714 110.453 377.54 110.348 377.365 110.243L367.025 131.953C367.225 132.018 367.42 132.093 367.611 132.18C368.82 132.759 369.75 133.793 370.197 135.056C370.645 136.32 370.573 137.709 369.997 138.919L369.848 139.19L416.625 161.468C416.657 161.368 416.698 161.272 416.747 161.18C417.029 160.574 417.427 160.031 417.92 159.581C418.413 159.131 418.991 158.783 419.619 158.558C420.248 158.332 420.915 158.234 421.582 158.269C422.248 158.303 422.901 158.47 423.503 158.759C423.696 158.855 423.879 158.96 424.054 159.065L434.385 137.355C434.188 137.29 433.995 137.214 433.808 137.127C432.597 136.551 431.665 135.517 431.216 134.254C430.767 132.99 430.838 131.6 431.413 130.389C431.509 130.205 431.614 130.022 431.728 129.847L384.872 107.577C384.81 107.775 384.734 107.967 384.645 108.154V108.154ZM408.243 138.089C407.539 139.569 406.412 140.807 405.004 141.646C403.596 142.485 401.971 142.888 400.334 142.803C398.697 142.719 397.122 142.151 395.808 141.171C394.494 140.191 393.501 138.843 392.953 137.299C392.405 135.754 392.327 134.081 392.73 132.493C393.133 130.904 393.998 129.47 395.215 128.373C396.433 127.276 397.949 126.565 399.571 126.329C401.193 126.094 402.848 126.345 404.328 127.05C406.309 127.997 407.833 129.691 408.565 131.761C409.298 133.831 409.179 136.107 408.235 138.089H408.243Z" stroke="black" stroke-width="0.874" stroke-miterlimit="10"/>
</g>
<g opacity="0.3">
<path opacity="0.3" d="M217 107.557L241.582 141.466L300.286 98.9091L275.704 65L217 107.557Z" stroke="black" stroke-width="0.874" stroke-miterlimit="10"/>
<path opacity="0.3" d="M227.767 104.764C228.552 105.849 228.875 107.202 228.663 108.524C228.452 109.847 227.724 111.032 226.639 111.818C226.471 111.943 226.292 112.054 226.106 112.15L240.221 131.622C240.373 131.479 240.534 131.345 240.702 131.22C241.788 130.434 243.142 130.112 244.466 130.323C245.79 130.534 246.976 131.263 247.764 132.348C247.824 132.432 247.88 132.519 247.93 132.61L289.882 102.195L289.689 101.959C288.903 100.874 288.578 99.5205 288.788 98.1965C288.998 96.8725 289.724 95.6859 290.808 94.897C290.983 94.7746 291.167 94.6697 291.341 94.5649L277.183 75.1009C277.03 75.2438 276.869 75.378 276.702 75.5029C275.616 76.2862 274.264 76.6073 272.942 76.396C271.62 76.1846 270.436 75.4581 269.649 74.3755C269.527 74.2107 269.416 74.0385 269.317 73.8598L227.365 104.301C227.509 104.446 227.644 104.601 227.767 104.764V104.764ZM265.349 98.3755C266.309 99.701 266.854 101.281 266.916 102.917C266.979 104.553 266.554 106.17 265.697 107.564C264.84 108.959 263.589 110.068 262.102 110.751C260.615 111.435 258.958 111.662 257.342 111.404C255.726 111.147 254.222 110.415 253.021 109.303C251.821 108.191 250.976 106.748 250.596 105.156C250.215 103.564 250.315 101.895 250.883 100.36C251.451 98.8248 252.461 97.4925 253.786 96.5314C255.561 95.245 257.775 94.7167 259.94 95.0625C262.105 95.4084 264.044 96.6001 265.331 98.3755H265.349Z" stroke="black" stroke-width="0.874" stroke-miterlimit="10"/>
</g>
<g opacity="0.15">
<path opacity="0.15" d="M250.144 223.554C256.56 223.764 269.809 218.144 269.827 218.135C269.844 218.126 263.464 210.531 263.001 210.103C257.617 205.13 244.306 198.689 237.166 202.718C232.018 205.62 231.161 212.262 234.43 216.894C237.699 221.526 244.673 223.379 250.144 223.554Z" fill="black"/>
<path opacity="0.15" d="M386.567 172.626C386.715 172.626 385.457 162.767 385.308 162.138C383.56 155.024 376.009 142.307 367.828 141.73C361.929 141.311 357.55 146.38 357.725 152.043C357.9 157.707 362.698 163.099 367.155 166.272C372.399 170.004 386.558 172.626 386.567 172.626Z" fill="black"/>
</g>
<path d="M113.262 250.465H12V270.278H113.262V250.465Z" fill="white" stroke="#263238" stroke-width="0.874" stroke-linecap="round" stroke-linejoin="round"/>
<path d="M141.3 229.646H40.0381V250.465H141.3V229.646Z" fill="white" stroke="#263238" stroke-width="0.874" stroke-linecap="round" stroke-linejoin="round"/>
<path d="M169.346 208.819H68.0845V229.637H169.346V208.819Z" fill="white" stroke="#263238" stroke-width="0.874" stroke-linecap="round" stroke-linejoin="round"/>
<path d="M197.384 188H96.1226V208.819H197.384V188Z" fill="white" stroke="#263238" stroke-width="0.874" stroke-linecap="round" stroke-linejoin="round"/>
<path d="M226.471 352.705V188H197.393V208.819H169.346V229.646H141.308V250.465H113.262V352.705H226.471Z" fill="#263238" stroke="#263238" stroke-width="0.874" stroke-linecap="round" stroke-linejoin="round"/>
<path d="M226.471 332.883H125.209V352.697H226.471V332.883Z" fill="white" stroke="#263238" stroke-width="0.874" stroke-linecap="round" stroke-linejoin="round"/>
<path d="M97.1715 332.883H198.433V312.064H97.1715V332.883Z" fill="white" stroke="#263238" stroke-width="0.874" stroke-linecap="round" stroke-linejoin="round"/>
<path d="M69.1251 312.064H170.387V291.237H69.1251V312.064Z" fill="white" stroke="#263238" stroke-width="0.874" stroke-linecap="round" stroke-linejoin="round"/>
<path d="M41.0777 291.237H142.339V270.418H41.0777V291.237Z" fill="white" stroke="#263238" stroke-width="0.874" stroke-linecap="round" stroke-linejoin="round"/>
<path d="M12 352.705V270.418H41.078V291.237H69.1159V312.064H97.1626V332.883H125.209V352.705H12Z" fill="#263238" stroke="#263238" stroke-width="0.874" stroke-linecap="round" stroke-linejoin="round"/>
<path d="M389.526 226.939L382.936 248.518L368.323 237.287C368.103 235.886 367.811 234.498 367.449 233.127C367.161 232.445 365.422 230.417 365.028 229.631C364.635 228.844 364.067 229.534 364.067 230.12C364.067 230.706 365.422 232.637 365.422 232.637L364.74 233.31L359.321 230.732C359.258 230.703 359.19 230.686 359.12 230.684C359.051 230.681 358.982 230.692 358.917 230.717C358.851 230.741 358.792 230.778 358.741 230.826C358.691 230.873 358.65 230.931 358.622 230.994V230.994C358.57 231.101 358.558 231.222 358.587 231.337C358.615 231.452 358.683 231.553 358.779 231.623L361.742 233.896L361.357 234.665L356.419 232.637C356.357 232.612 356.29 232.6 356.223 232.601C356.156 232.603 356.089 232.618 356.028 232.646C355.967 232.674 355.912 232.713 355.866 232.763C355.821 232.813 355.786 232.871 355.764 232.934V232.934C355.73 233.041 355.733 233.156 355.773 233.261C355.813 233.365 355.886 233.453 355.982 233.511L360.483 236.133L357.547 236.71C357.478 236.724 357.414 236.752 357.357 236.793C357.3 236.833 357.252 236.885 357.217 236.945C357.181 237.005 357.159 237.072 357.151 237.142C357.143 237.211 357.15 237.281 357.171 237.348V237.348C357.205 237.446 357.269 237.532 357.353 237.593C357.438 237.654 357.539 237.687 357.643 237.689H360.676L358.054 238.65C358.054 238.65 358.395 239.411 358.928 239.384L362.03 239.236L366.584 239.524C366.584 239.524 381.381 255.038 381.87 255.51C382.36 255.982 385.261 257.039 385.838 256.462C386.415 255.886 392.909 248.037 392.909 248.037L391.939 227.717C391.939 227.717 390.977 225.794 389.526 226.939Z" fill="white" stroke="#263238" stroke-width="0.874" stroke-linecap="round" stroke-linejoin="round"/>
<path d="M393.023 202.047C393.023 202.047 390.2 202.239 388.871 197.677C387.543 193.115 390.952 191.821 392.839 191.446C394.727 191.07 395.103 186.918 398.311 186.35C401.518 185.782 404.909 188.43 405.67 190.72C406.43 193.01 411.333 189.584 414.156 192.608C416.979 195.632 416.778 201.47 416.778 203.55C416.778 205.631 423.193 206.006 423.193 210.909C423.193 215.813 422.433 218.269 422.809 219.02C423.185 219.772 426.016 235.224 426.016 235.224H390.803C390.803 235.224 389.675 223.932 390.995 221.1C392.315 218.269 393.451 218.076 394.011 215.437C394.57 212.797 394.011 208.646 393.635 206.758C393.351 205.199 393.146 203.627 393.023 202.047V202.047Z" fill="#263238" stroke="#263238" stroke-width="0.874" stroke-linecap="round" stroke-linejoin="round"/>
<path d="M399.823 221.861L389.256 222.053L391.327 247.897L411.333 249.409L420.764 222.612L409.445 221.677L399.823 221.861Z" fill="#263238" stroke="#263238" stroke-width="0.874" stroke-linecap="round" stroke-linejoin="round"/>
<path d="M396.422 196.008C396.422 196.008 393.591 199.976 393.022 202.047C392.279 204.442 392.118 206.98 392.551 209.45C393.119 212.282 394.727 216.958 395.854 217.316C396.982 217.674 400.006 217.316 400.006 217.316L399.822 221.843H398.31L398.494 228.634L405.669 229.01L409.445 221.651L407.557 221.275L406.237 210.149C406.237 210.149 408.116 208.069 408.309 206.557C408.415 205.807 408.48 205.051 408.501 204.293C408.501 204.293 406.237 205.998 404.35 204.293C402.462 202.589 401.894 200.71 401.325 198.822C400.757 196.934 399.63 195.431 398.703 195.431C397.917 195.5 397.147 195.694 396.422 196.008V196.008Z" fill="white" stroke="#263238" stroke-width="0.874" stroke-linecap="round" stroke-linejoin="round"/>
<path d="M400.006 217.333L403.213 216.197L400.198 219.597L400.006 217.333Z" fill="#263238" stroke="#263238" stroke-width="0.874" stroke-linecap="round" stroke-linejoin="round"/>
<path d="M391.327 247.897L389.255 254.505C389.255 254.505 381.704 262.615 380.192 277.709C378.68 292.803 381.136 307.714 381.896 313.753C382.657 319.792 389.928 346.484 389.928 346.484H394.84C394.84 346.484 393.022 321.68 393.022 319.224V305.45L406.893 343.591L411.429 343.784C411.429 343.784 409.611 325.771 408.483 318.438C407.704 313.618 406.638 308.85 405.293 304.157C405.293 304.157 415.274 284.352 415.274 270.735C415.274 257.118 411.875 254.129 411.875 254.129L411.315 249.409L391.327 247.897Z" fill="#BABABA" stroke="#263238" stroke-width="0.874" stroke-linecap="round" stroke-linejoin="round"/>
<path d="M397.384 268.62C398.039 265.674 398.494 263.734 398.494 263.734" stroke="#263238" stroke-width="0.874" stroke-linecap="round" stroke-linejoin="round"/>
<path d="M393.023 305.45C393.023 305.45 392.271 301.674 392.839 293.564C393.171 288.774 395.077 279.265 396.589 272.273" stroke="#263238" stroke-width="0.874" stroke-linecap="round" stroke-linejoin="round"/>
<path d="M389.929 346.484C389.929 346.484 381.066 350.636 381.066 351.58C381.066 352.524 395.216 351.58 395.216 351.58C395.544 350.674 395.672 349.708 395.592 348.748C395.477 347.955 395.223 347.189 394.841 346.484H389.929Z" fill="white" stroke="#263238" stroke-width="0.874" stroke-linecap="round" stroke-linejoin="round"/>
<path d="M406.893 343.591C406.893 343.591 402.75 348.879 401.422 350.199C400.093 351.519 400.478 352.463 401.614 352.463C402.75 352.463 409.165 352.087 410.293 351.335C410.933 350.922 411.505 350.412 411.988 349.823L411.429 343.784L406.893 343.591Z" fill="white" stroke="#263238" stroke-width="0.874" stroke-linecap="round" stroke-linejoin="round"/>
<path d="M419.645 226.012C419.645 226.012 421.349 251.105 419.837 253.753C418.325 256.401 413.99 254.88 413.614 253.753C413.238 252.625 413.99 242.802 413.99 242.802L419.645 226.012Z" fill="white" stroke="#263238" stroke-width="0.874" stroke-linecap="round" stroke-linejoin="round"/>
<path d="M373.689 166L293.707 177.654L313.883 316.128L393.866 304.474L373.689 166Z" fill="#92E3A9" stroke="#263238" stroke-width="0.874" stroke-linecap="round" stroke-linejoin="round"/>
<path d="M368.795 186.953C367.528 187.139 366.236 187.073 364.995 186.759C363.753 186.445 362.585 185.889 361.559 185.124C360.532 184.359 359.666 183.398 359.01 182.298C358.355 181.198 357.923 179.979 357.739 178.711C357.688 178.311 357.659 177.909 357.652 177.505L311.723 184.191C311.837 184.578 311.925 184.972 311.985 185.371C312.355 187.931 311.694 190.533 310.147 192.606C308.6 194.679 306.294 196.053 303.734 196.427C303.533 196.427 303.341 196.471 303.14 196.488L317.544 295.425C317.745 295.382 317.937 295.338 318.138 295.312C319.407 295.126 320.7 295.193 321.944 295.509C323.187 295.824 324.355 296.382 325.383 297.15C326.41 297.918 327.275 298.882 327.929 299.985C328.583 301.088 329.013 302.31 329.194 303.58C329.252 303.979 329.284 304.382 329.29 304.786L375.21 298.1C375.098 297.71 375.013 297.313 374.957 296.911C374.771 295.644 374.837 294.353 375.151 293.112C375.465 291.871 376.021 290.704 376.786 289.678C377.552 288.652 378.512 287.787 379.613 287.132C380.713 286.478 381.931 286.047 383.199 285.864C383.598 285.806 384.001 285.774 384.405 285.768L369.975 186.7C369.587 186.807 369.193 186.891 368.795 186.953V186.953ZM346.071 256.873C342.943 257.329 339.749 256.847 336.895 255.489C334.04 254.13 331.652 251.955 330.034 249.239C328.415 246.523 327.638 243.389 327.801 240.231C327.964 237.074 329.059 234.036 330.949 231.501C332.838 228.966 335.437 227.049 338.416 225.991C341.395 224.933 344.621 224.782 347.686 225.558C350.751 226.333 353.517 228 355.635 230.348C357.753 232.695 359.127 235.618 359.583 238.746C359.891 240.826 359.786 242.947 359.273 244.986C358.761 247.026 357.851 248.944 356.596 250.631C355.34 252.318 353.765 253.741 351.959 254.818C350.153 255.895 348.152 256.605 346.071 256.908V256.873Z" fill="white" stroke="#263238" stroke-width="0.874" stroke-linecap="round" stroke-linejoin="round"/>
<path d="M360.403 168.957L282 189.972L318.383 325.71L396.786 304.695L360.403 168.957Z" fill="#92E3A9" stroke="#263238" stroke-width="0.877707" stroke-linecap="round" stroke-linejoin="round"/>
<path d="M355.44 190.283C352.943 190.951 350.283 190.599 348.044 189.306C345.805 188.013 344.171 185.884 343.502 183.387C343.403 182.995 343.324 182.599 343.266 182.199L298.438 194.19C298.591 194.564 298.723 194.946 298.831 195.335C299.163 196.572 299.247 197.863 299.08 199.133C298.912 200.402 298.496 201.627 297.854 202.736C297.213 203.845 296.359 204.816 295.342 205.595C294.325 206.373 293.165 206.944 291.927 207.274C291.735 207.326 291.534 207.361 291.341 207.405L317.177 303.99L317.754 303.807C318.99 303.475 320.28 303.391 321.55 303.558C322.819 303.725 324.043 304.14 325.152 304.781C326.261 305.421 327.232 306.274 328.011 307.29C328.791 308.306 329.362 309.466 329.692 310.703C329.796 311.094 329.875 311.491 329.928 311.891L374.756 299.9C374.603 299.526 374.471 299.144 374.363 298.755C373.695 296.256 374.048 293.595 375.343 291.356C376.638 289.117 378.769 287.484 381.267 286.816C381.657 286.708 382.054 286.629 382.456 286.58L356.585 189.89C356.212 190.044 355.83 190.176 355.44 190.283V190.283ZM340.984 262.406C337.929 263.213 334.703 263.097 331.713 262.072C328.724 261.046 326.106 259.158 324.189 256.645C322.273 254.132 321.144 251.108 320.946 247.954C320.747 244.799 321.488 241.657 323.075 238.924C324.662 236.191 327.024 233.99 329.861 232.598C332.699 231.207 335.885 230.688 339.017 231.106C342.15 231.525 345.088 232.863 347.46 234.951C349.833 237.039 351.533 239.783 352.346 242.837C352.889 244.868 353.025 246.986 352.747 249.069C352.469 251.153 351.782 253.161 350.727 254.979C349.671 256.797 348.268 258.389 346.596 259.663C344.924 260.938 343.017 261.87 340.984 262.406V262.406Z" fill="white" stroke="#263238" stroke-width="0.874" stroke-linecap="round" stroke-linejoin="round"/>
<path d="M415.274 249.601L387.158 249.033C387.158 249.033 381.494 247.146 380.55 247.146C379.224 247.359 377.92 247.69 376.652 248.133C376.531 248.172 376.428 248.254 376.364 248.363C376.299 248.473 376.277 248.603 376.303 248.727V248.727C376.33 248.859 376.407 248.974 376.518 249.049C376.629 249.124 376.765 249.153 376.897 249.13L379.615 248.658L380.367 249.217L374.922 252.713C374.811 252.785 374.732 252.896 374.699 253.024C374.667 253.152 374.684 253.287 374.747 253.403V253.403C374.81 253.521 374.916 253.61 375.043 253.652C375.169 253.694 375.307 253.687 375.429 253.631L379.519 251.708L379.659 252.739L375.289 255.02C375.15 255.093 375.044 255.215 374.989 255.361C374.934 255.508 374.935 255.67 374.992 255.816C375.05 255.956 375.155 256.071 375.289 256.141C375.423 256.211 375.578 256.232 375.726 256.2L377.325 255.833C377.51 256.059 377.756 256.226 378.033 256.315C378.311 256.403 378.609 256.409 378.89 256.331L381.87 255.457L379.982 256.663C379.909 256.707 379.847 256.768 379.801 256.84C379.755 256.913 379.728 256.995 379.72 257.08C379.712 257.166 379.725 257.251 379.757 257.331C379.789 257.41 379.839 257.481 379.904 257.537V257.537C379.999 257.611 380.115 257.651 380.236 257.651C380.356 257.651 380.473 257.611 380.568 257.537L384.343 254.959L387.577 252.896L416.07 257.913C416.07 257.913 418.473 258.123 418.893 257.642C419.312 257.162 420.125 252.617 420.195 251.446" fill="white"/>
<path d="M415.274 249.601L387.158 249.033C387.158 249.033 381.494 247.146 380.55 247.146C379.224 247.359 377.92 247.69 376.652 248.133C376.531 248.172 376.428 248.254 376.364 248.363C376.299 248.473 376.277 248.603 376.303 248.727V248.727C376.33 248.859 376.407 248.974 376.518 249.049C376.629 249.124 376.765 249.153 376.897 249.13L379.615 248.658L380.367 249.217L374.922 252.713C374.811 252.785 374.732 252.896 374.699 253.024C374.667 253.152 374.684 253.287 374.747 253.403V253.403C374.81 253.521 374.916 253.61 375.043 253.652C375.169 253.694 375.307 253.687 375.429 253.631L379.519 251.708L379.659 252.739L375.289 255.02C375.15 255.093 375.044 255.215 374.989 255.361C374.934 255.508 374.935 255.67 374.992 255.816C375.05 255.956 375.155 256.071 375.289 256.141C375.423 256.211 375.578 256.232 375.726 256.2L377.325 255.833C377.51 256.059 377.756 256.226 378.033 256.315C378.311 256.403 378.609 256.409 378.89 256.331L381.87 255.457L379.982 256.663C379.909 256.707 379.847 256.768 379.801 256.84C379.755 256.913 379.728 256.995 379.72 257.08C379.712 257.166 379.725 257.251 379.757 257.331C379.789 257.41 379.839 257.481 379.904 257.537V257.537C379.999 257.611 380.115 257.651 380.236 257.651C380.356 257.651 380.473 257.611 380.568 257.537L384.343 254.959L387.577 252.896L416.07 257.913C416.07 257.913 418.473 258.123 418.893 257.642C419.312 257.162 420.125 252.617 420.195 251.446" stroke="#263238" stroke-width="0.874" stroke-linecap="round" stroke-linejoin="round"/>
<path d="M377.334 255.851L381.189 254.408" stroke="#263238" stroke-width="0.874" stroke-linecap="round" stroke-linejoin="round"/>
<path d="M395.549 204.521C395.549 205.167 395.217 205.7 394.797 205.7C394.378 205.7 394.045 205.167 394.045 204.521C394.045 203.874 394.386 203.349 394.797 203.349C395.208 203.349 395.549 203.874 395.549 204.521Z" fill="#263238"/>
<path d="M399.77 205.412C399.77 206.059 399.429 206.583 399.018 206.583C398.608 206.583 398.267 206.059 398.267 205.412C398.267 204.765 398.608 204.241 399.018 204.241C399.429 204.241 399.77 204.765 399.77 205.412Z" fill="#263238"/>
<path d="M393.862 201.855C393.862 201.855 394.613 200.911 396.108 201.942" stroke="#263238" stroke-width="0.874" stroke-linecap="round" stroke-linejoin="round"/>
<path d="M398.17 202.414C398.682 202.212 399.253 202.217 399.762 202.427C400.27 202.637 400.677 203.037 400.897 203.542" stroke="#263238" stroke-width="0.874" stroke-linecap="round" stroke-linejoin="round"/>
<path d="M396.3 204.573C396.401 205.135 396.368 205.713 396.204 206.26C395.924 206.915 394.613 208.13 394.709 208.419C394.805 208.707 395.452 208.882 395.452 208.882" stroke="#263238" stroke-width="0.874" stroke-linecap="round" stroke-linejoin="round"/>
<path d="M394.613 211.137C394.613 211.137 397.235 212.352 399.298 210.665" stroke="#263238" stroke-width="0.874" stroke-linecap="round" stroke-linejoin="round"/>
<path d="M206.839 139.133C223.473 139.133 236.957 125.648 236.957 109.015C236.957 92.3808 223.473 78.8965 206.839 78.8965C190.205 78.8965 176.721 92.3808 176.721 109.015C176.721 125.648 190.205 139.133 206.839 139.133Z" fill="white" stroke="#263238" stroke-width="0.874" stroke-linecap="round" stroke-linejoin="round"/>
<path d="M209.881 139.133C226.514 139.133 239.999 125.648 239.999 109.015C239.999 92.3808 226.514 78.8965 209.881 78.8965C193.247 78.8965 179.763 92.3808 179.763 109.015C179.763 125.648 193.247 139.133 209.881 139.133Z" fill="white" stroke="#263238" stroke-width="0.874" stroke-linecap="round" stroke-linejoin="round"/>
<path d="M227.956 127.084C237.936 117.104 237.936 100.923 227.956 90.9428C217.976 80.9627 201.795 80.9627 191.815 90.9428C181.835 100.923 181.835 117.104 191.815 127.084C201.795 137.064 217.976 137.064 227.956 127.084Z" fill="white" stroke="#263238" stroke-width="0.874" stroke-linecap="round" stroke-linejoin="round"/>
<path d="M210.169 126.984V123.619C207.687 123.526 205.831 122.731 204.602 121.233C203.372 119.736 202.708 117.504 202.609 114.538L207.713 113.664C207.735 114.68 207.861 115.69 208.089 116.68C208.225 117.356 208.546 117.982 209.016 118.489C209.226 118.691 209.476 118.849 209.749 118.953C210.023 119.056 210.314 119.104 210.606 119.092C210.904 119.124 211.206 119.073 211.477 118.945C211.748 118.817 211.979 118.617 212.144 118.366C212.424 117.855 212.566 117.28 212.555 116.697C212.587 115.603 212.282 114.526 211.681 113.612C211.018 112.673 210.233 111.827 209.348 111.095L206.28 108.473C205.606 107.853 204.975 107.187 204.392 106.48C203.831 105.787 203.386 105.008 203.072 104.173C202.728 103.184 202.563 102.143 202.583 101.096C202.525 100.127 202.667 99.1571 203.001 98.2458C203.335 97.3345 203.853 96.5018 204.523 95.7997C205.937 94.4781 207.781 93.7115 209.715 93.6409V90.4246H211.463V93.6409C212.585 93.6627 213.684 93.963 214.662 94.5149C215.454 94.9892 216.111 95.6606 216.567 96.4639C217.004 97.2696 217.319 98.1355 217.502 99.0335C217.689 99.9208 217.812 100.82 217.869 101.725L212.695 102.486C212.679 101.692 212.606 100.9 212.477 100.117C212.396 99.5364 212.174 98.9841 211.83 98.5091C211.65 98.3083 211.424 98.1541 211.171 98.0597C210.918 97.9654 210.647 97.9336 210.379 97.9672C210.077 97.9637 209.779 98.0344 209.511 98.1731C209.242 98.3118 209.012 98.5142 208.841 98.7626C208.485 99.2747 208.301 99.887 208.316 100.511C208.274 101.466 208.554 102.408 209.112 103.185C209.665 103.879 210.27 104.53 210.921 105.134L213.927 107.756C214.724 108.479 215.46 109.266 216.13 110.107C216.807 110.957 217.355 111.903 217.756 112.913C218.183 114.028 218.394 115.214 218.376 116.409C218.393 117.619 218.126 118.816 217.598 119.905C217.093 120.942 216.317 121.824 215.352 122.457C214.318 123.13 213.13 123.53 211.9 123.619V127.019L210.169 126.984Z" fill="white" stroke="#263238" stroke-width="0.874" stroke-linecap="round" stroke-linejoin="round"/>
<path d="M134.227 105.291L135.18 149.446L134.795 180.84L139.934 180.08C139.934 180.08 145.458 150.582 145.458 148.869C145.458 147.156 148.499 125.271 148.499 125.271L154.207 153.624L157.17 180.831L162.309 180.071C162.309 180.071 162.964 150.573 162.964 145.251C162.964 139.928 162.702 105.658 162.702 105.658L146.594 101.481L134.227 105.291Z" fill="#263238" stroke="#263238" stroke-width="0.874" stroke-linecap="round" stroke-linejoin="round"/>
<path d="M139.935 180.08C139.935 180.08 147.547 185.026 146.411 186.198C145.275 187.369 138.982 186.198 137.269 186.005C136.478 185.974 135.701 185.781 134.988 185.437L134.795 180.866L139.935 180.08Z" fill="white" stroke="#263238" stroke-width="0.874" stroke-linecap="round" stroke-linejoin="round"/>
<path d="M162.309 180.08C162.309 180.08 169.922 185.026 168.777 186.198C167.632 187.369 161.356 186.198 159.643 186.005C158.852 185.974 158.076 185.781 157.362 185.437L157.17 180.866L162.309 180.08Z" fill="white" stroke="#263238" stroke-width="0.874" stroke-linecap="round" stroke-linejoin="round"/>
<path d="M201.542 77.9876L208.403 76.4056C208.403 76.4056 214.993 79.9016 215.544 80.3998C216.095 80.898 214.993 80.9504 213.796 80.9504C211.918 80.6993 210.059 80.3286 208.229 79.8405C208.229 79.8405 211.104 80.7145 210.641 81.1427C210.381 81.3443 210.082 81.4896 209.763 81.5694C209.444 81.6491 209.112 81.6616 208.788 81.6059C208.325 81.5098 206.559 81.2301 206.559 81.2301C206.559 81.2301 203.5 81.1427 202.574 80.9504L201.647 80.7669L201.542 77.9876Z" fill="white" stroke="#263238" stroke-width="0.874" stroke-linecap="round" stroke-linejoin="round"/>
<path d="M157.161 50.78C157.161 50.78 141.551 59.52 139.541 62.0283C137.531 64.5367 136.858 77.1311 135.512 86.0284C134.632 92.6515 134.127 99.3191 134 105.999C134 105.999 145.248 107.511 151.48 107.345C155.282 107.229 159.058 106.665 162.728 105.667C162.728 105.667 164.913 94.4188 165.412 92.7407C165.91 91.0626 169.948 70.8907 169.948 70.8907L182.367 80.7931H201.543V77.9526C201.543 77.9526 186.37 74.4566 186.204 73.906C186.038 73.3554 173.278 55.1063 169.414 52.93C165.551 50.7537 159.853 48.761 157.161 50.78Z" fill="#92E3A9" stroke="#263238" stroke-width="0.874" stroke-linecap="round" stroke-linejoin="round"/>
<path d="M158.673 45.9118L155.824 52.7902C155.824 52.7902 154.478 53.131 154.819 55.8142C155.16 58.4974 158.507 66.0487 159.678 65.8827C160.85 65.7166 164.547 55.6918 164.547 55.6918L158.673 45.9118Z" fill="white" stroke="#263238" stroke-width="0.874" stroke-linecap="round" stroke-linejoin="round"/>
<path d="M160.281 53.5068L161.47 62.6751L163.707 58.1653L160.281 53.5068Z" fill="#263238" stroke="#263238" stroke-width="0.874" stroke-linecap="round" stroke-linejoin="round"/>
<path d="M174.624 41.8826C175.177 42.3479 175.86 42.6306 176.58 42.6916C177.3 42.7526 178.021 42.5891 178.644 42.2235C181.17 41.0436 182.341 38.5265 180.156 36.5163C177.971 34.5061 176.8 36.6823 176.127 33.9992C175.454 31.316 172.771 29.4718 170.463 30.1361C168.156 30.8003 168.96 31.6481 167.282 32.1463C165.604 32.6445 163.419 31.1412 161.234 33.3262C159.049 35.5112 158.717 40.7115 158.219 43.0625C157.721 45.4136 159.897 46.0778 161.715 45.9118C163.533 45.7457 165.071 41.8826 166.583 40.6678C168.095 39.4529 174.624 41.8826 174.624 41.8826Z" fill="#263238" stroke="#263238" stroke-width="0.874" stroke-linecap="round" stroke-linejoin="round"/>
<path d="M158.341 46.5848C158.341 46.5848 158.507 50.273 159.215 51.4529C159.923 52.6328 162.711 58.1653 163.742 58.1653C164.817 58.24 165.897 58.1246 166.932 57.8244C167.605 57.4923 170.289 53.9701 171.967 50.946C173.645 47.922 174.659 41.8826 174.659 41.8826C174.659 41.8826 166.6 36.8484 166.093 37.8535C165.586 38.8586 165.761 40.3706 164.922 40.5367C164.083 40.7027 162.239 40.8775 162.239 40.8775C162.239 40.8775 162.737 43.2286 162.064 43.7268C161.391 44.225 159.713 43.2286 159.713 43.2286C159.713 43.2286 157.668 43.5607 158.341 46.5848Z" fill="white" stroke="#263238" stroke-width="0.874" stroke-linecap="round" stroke-linejoin="round"/>
<path d="M167.676 47.1791C167.527 47.8171 167.116 48.2716 166.802 48.1929C166.487 48.1143 166.277 47.5199 166.426 46.8819C166.574 46.2439 166.985 45.7807 167.343 45.8681C167.702 45.9555 167.842 46.5411 167.676 47.1791Z" fill="#263238"/>
<path d="M172.063 48.4027C171.905 49.0494 171.503 49.4952 171.145 49.4165C170.787 49.3379 170.621 48.7435 170.769 48.1055C170.918 47.4675 171.329 47.0043 171.643 47.0917C171.958 47.1791 172.211 47.7647 172.063 48.4027Z" fill="#263238"/>
<path d="M165.84 44.7756C165.84 44.7756 166.504 44.2424 168.462 44.7756" stroke="#263238" stroke-width="0.874" stroke-linecap="round" stroke-linejoin="round"/>
<path d="M171.407 45.973C171.758 46.0129 172.095 46.1281 172.397 46.3106C172.699 46.4931 172.957 46.7387 173.155 47.0305" stroke="#263238" stroke-width="0.874" stroke-linecap="round" stroke-linejoin="round"/>
<path d="M169.948 48.359L169.284 51.9336L167.168 51.6714" stroke="#263238" stroke-width="0.874" stroke-linecap="round" stroke-linejoin="round"/>
<path d="M166.504 53.7865C166.504 53.7865 164.511 53.7865 163.882 51.0072" stroke="#263238" stroke-width="0.874" stroke-linecap="round" stroke-linejoin="round"/>
<path d="M160.517 44.7406C160.517 44.7406 160.185 40.8775 158.673 40.8775C157.161 40.8775 155.824 44.3735 156.663 45.9118C157.502 47.45 159.678 47.922 159.678 47.922" fill="white"/>
<path d="M160.517 44.7406C160.517 44.7406 160.185 40.8775 158.673 40.8775C157.161 40.8775 155.824 44.3735 156.663 45.9118C157.502 47.45 159.678 47.922 159.678 47.922" stroke="#263238" stroke-width="0.874" stroke-linecap="round" stroke-linejoin="round"/>
<path d="M147.128 65.0349L150.038 89.1573L174.51 97.5215L174.895 100.353L142.172 95.8958L136.928 68.7494C136.29 65.4544 137.985 61.8798 140.337 59.8783C142.688 57.8768 146.376 57.772 146.376 57.772" fill="#92E3A9"/>
<path d="M147.128 65.0349L150.038 89.1573L174.51 97.5215L174.895 100.353L142.172 95.8958L136.928 68.7494C136.29 65.4544 137.985 61.8798 140.337 59.8783C142.688 57.8768 146.376 57.772 146.376 57.772" stroke="#263238" stroke-width="0.874" stroke-linecap="round" stroke-linejoin="round"/>
<path d="M174.475 97.5215C174.475 97.5215 178.373 96.429 178.845 96.3328C179.317 96.2367 181.965 98.2906 182.49 98.3605C183.014 98.4304 183.906 98.5965 183.862 99.287C183.818 99.9774 183.591 100.537 182.315 100.1C181.588 99.8632 180.881 99.571 180.2 99.2258C181.399 100.453 182.671 101.606 184.01 102.678C184.493 102.981 184.934 103.345 185.321 103.762C185.381 103.825 185.424 103.901 185.448 103.985C185.473 104.068 185.477 104.156 185.461 104.241C185.444 104.326 185.408 104.406 185.355 104.475C185.302 104.544 185.234 104.599 185.155 104.636C184.11 105.133 182.98 105.43 181.825 105.51C179.955 105.51 174.833 100.362 174.833 100.362L174.475 97.5215Z" fill="white" stroke="#263238" stroke-width="0.874" stroke-linecap="round" stroke-linejoin="round"/>
<path d="M294.712 185.016C294.712 185.016 317.591 172.113 320.925 173.36C324.259 174.607 318.007 199.989 317.176 201.652C316.344 203.315 294.712 185.016 294.712 185.016Z" fill="#92E3A9" stroke="#263238" stroke-width="0.874" stroke-linecap="round" stroke-linejoin="round"/>
<path d="M319.67 176.694C319.67 176.694 318.678 178.237 317.415 180.459C315.209 184.344 312.187 190.308 312.187 193.753C312.187 199.158 315.513 198.742 316.344 194.553L319.254 182.482" stroke="#263238" stroke-width="0.874" stroke-linecap="round" stroke-linejoin="round"/>
<path d="M127.36 252.711C133.634 252.711 138.72 246.09 138.72 237.922C138.72 229.754 133.634 223.132 127.36 223.132C121.086 223.132 116 229.754 116 237.922C116 246.09 121.086 252.711 127.36 252.711Z" fill="#92E3A9" stroke="#263238" stroke-width="0.874" stroke-linecap="round" stroke-linejoin="round"/>
<path d="M230.327 344.045C290.107 344.045 338.569 303.017 338.569 252.407C338.569 201.797 290.107 160.769 230.327 160.769C170.546 160.769 122.084 201.797 122.084 252.407C122.084 303.017 170.546 344.045 230.327 344.045Z" fill="#92E3A9" stroke="#263238" stroke-width="0.874" stroke-linecap="round" stroke-linejoin="round"/>
<path d="M300.626 315.578C282.239 330.223 257.537 339.201 230.325 339.201C181.76 339.201 141.077 310.605 130.493 272.217" fill="#92E3A9"/>
<path d="M300.626 315.578C282.239 330.223 257.537 339.201 230.325 339.201C181.76 339.201 141.077 310.605 130.493 272.217" stroke="#263238" stroke-width="1.748" stroke-linecap="round" stroke-linejoin="round"/>
<path d="M127.872 255.285C127.832 254.334 127.816 253.375 127.816 252.407C127.819 241.942 130.013 231.594 134.259 222.029" fill="#92E3A9"/>
<path d="M127.872 255.285C127.832 254.334 127.816 253.375 127.816 252.407C127.819 241.942 130.013 231.594 134.259 222.029" stroke="#263238" stroke-width="1.748" stroke-linecap="round" stroke-linejoin="round"/>
<path d="M197.822 170.858C219.122 164.836 241.675 164.836 262.975 170.858" stroke="#263238" stroke-width="4.37" stroke-linecap="round" stroke-linejoin="round"/>
<path d="M332.572 224.124C332.572 224.124 346.306 219.543 348.385 222.045C350.463 224.547 350.463 253.662 348.8 259.074C347.138 264.486 335.898 263.231 328.015 257.412C325.756 255.825 323.927 253.7 322.693 251.23C321.459 248.76 320.86 246.022 320.949 243.262" fill="#92E3A9"/>
<path d="M332.572 224.124C332.572 224.124 346.306 219.543 348.385 222.045C350.463 224.547 350.463 253.662 348.8 259.074C347.138 264.486 335.898 263.231 328.015 257.412C325.756 255.825 323.927 253.7 322.693 251.23C321.459 248.76 320.86 246.022 320.949 243.262" stroke="#263238" stroke-width="0.874" stroke-linecap="round" stroke-linejoin="round"/>
<path d="M324.249 242.015L315.927 243.262" stroke="#263238" stroke-width="0.874" stroke-linecap="round" stroke-linejoin="round"/>
<path d="M322.172 251.168C322.172 251.168 320.093 265.734 322.587 266.149C325.082 266.565 329.247 259.074 329.247 259.074C329.247 259.074 323.419 252.415 322.172 251.168Z" fill="#263238" stroke="#263238" stroke-width="0.874" stroke-linecap="round" stroke-linejoin="round"/>
<path d="M314.601 217.057C315.4 220.054 314.913 222.773 313.578 223.116C312.242 223.46 310.54 221.302 309.764 218.32C308.989 215.338 309.452 212.604 310.788 212.26C312.123 211.916 313.833 214.051 314.601 217.057Z" fill="#263238"/>
<path d="M270.88 176.734C270.88 176.734 297.061 150.553 302.169 155.661C307.278 160.769 305.367 183.121 305.367 186.319V195.256" fill="#92E3A9"/>
<path d="M270.88 176.734C270.88 176.734 297.061 150.553 302.169 155.661C307.278 160.769 305.367 183.121 305.367 186.319V195.256" stroke="#263238" stroke-width="0.874" stroke-linecap="round" stroke-linejoin="round"/>
<path d="M303.032 161.297C303.032 161.297 303.448 154.638 300.53 158.803C297.612 162.968 289.298 191.667 291.793 195.001C294.287 198.334 301.386 196.663 303.032 190.42C304.679 184.176 303.448 166.285 303.448 166.285" stroke="#263238" stroke-width="0.874" stroke-linecap="round" stroke-linejoin="round"/>
<path d="M159.72 313.147L174.045 351.864H189.858L196.925 331.886" fill="#92E3A9"/>
<path d="M159.72 313.147L174.045 351.864H189.858L196.925 331.886" stroke="#263238" stroke-width="0.874" stroke-linecap="round" stroke-linejoin="round"/>
<path d="M291.794 318.16L278.068 351.864H262.256L255.181 331.886" fill="#92E3A9"/>
<path d="M291.794 318.16L278.068 351.864H262.256L255.181 331.886" stroke="#263238" stroke-width="0.874" stroke-linecap="round" stroke-linejoin="round"/>
<path d="M225.042 297.799V289.716C219.079 289.482 214.621 287.571 211.668 283.985C208.716 280.398 207.117 275.042 206.872 267.916L219.127 265.83C219.179 268.271 219.485 270.701 220.038 273.08C220.361 274.704 221.127 276.207 222.252 277.421C222.761 277.905 223.361 278.281 224.017 278.529C224.673 278.776 225.373 278.889 226.074 278.86C227.864 278.86 229.095 278.285 229.767 277.117C230.45 275.898 230.795 274.518 230.766 273.12C230.857 270.494 230.143 267.903 228.72 265.694C227.128 263.444 225.247 261.415 223.124 259.658L215.737 253.311C214.126 251.815 212.617 250.212 211.22 248.514C209.85 246.84 208.77 244.948 208.023 242.918C207.192 240.546 206.794 238.044 206.848 235.531C206.848 230.095 208.398 225.856 211.5 222.813C214.602 219.769 218.756 218.045 223.963 217.64V209.99H228.2V217.72C230.899 217.775 233.54 218.506 235.883 219.847C237.781 220.994 239.353 222.61 240.447 224.539C241.505 226.471 242.265 228.552 242.702 230.711C243.143 232.84 243.426 234.999 243.549 237.17L231.126 238.993C231.091 237.086 230.917 235.183 230.606 233.301C230.41 231.899 229.86 230.57 229.008 229.44C228.577 228.959 228.037 228.589 227.433 228.362C226.829 228.135 226.179 228.058 225.538 228.137C224.813 228.126 224.096 228.295 223.452 228.629C222.807 228.962 222.255 229.449 221.845 230.047C221.009 231.245 220.568 232.673 220.582 234.132C220.477 236.42 221.153 238.676 222.5 240.528C223.822 242.203 225.274 243.772 226.841 245.22L234.036 251.472C235.971 253.219 237.763 255.12 239.392 257.156C241.021 259.197 242.338 261.468 243.301 263.895C244.326 266.592 244.823 269.461 244.764 272.345C244.802 275.245 244.161 278.114 242.894 280.723C241.682 283.212 239.824 285.33 237.513 286.854C235.025 288.463 232.171 289.418 229.215 289.628V297.799H225.042Z" fill="#263238"/>
<path opacity="0.35" d="M255.771 251.36C270.147 251.36 281.801 240.075 281.801 226.154C281.801 212.233 270.147 200.948 255.771 200.948C241.396 200.948 229.742 212.233 229.742 226.154C229.742 240.075 241.396 251.36 255.771 251.36Z" fill="white"/>
<path d="M1 353H437" stroke="#263238" stroke-width="0.781013" stroke-linecap="round" stroke-linejoin="round"/>
</svg>
