<svg width="500" height="501" viewBox="0 0 500 501" fill="none" xmlns="http://www.w3.org/2000/svg">
<path d="M464.5 131.483C462.913 128.816 461.247 126.183 459.5 123.583C436.33 89.2327 396.44 65.7427 357.2 55.1227C339.984 50.543 322.297 47.9626 304.49 47.4327C187.87 43.4827 141.42 135.433 102.88 159.103C64.34 182.773 4.99999 223.343 8.99999 308.333C13 393.323 74.22 473.333 192.81 478.333C311.4 483.333 319.31 429.923 385.52 410.123C429.34 397.043 460.52 352.863 475.72 312.033C496.5 256.393 495.52 184.123 464.5 131.483Z" fill="#92E3A9"/>
<path opacity="0.7" d="M464.5 131.483C462.913 128.816 461.247 126.183 459.5 123.583C436.33 89.2327 396.44 65.7427 357.2 55.1227C339.984 50.543 322.297 47.9626 304.49 47.4327C187.87 43.4827 141.42 135.433 102.88 159.103C64.34 182.773 4.99999 223.343 8.99999 308.333C13 393.323 74.22 473.333 192.81 478.333C311.4 483.333 319.31 429.923 385.52 410.123C429.34 397.043 460.52 352.863 475.72 312.033C496.5 256.393 495.52 184.123 464.5 131.483Z" fill="white"/>
<path opacity="0.2" d="M462 270.953H420V287.953H462V270.953Z" fill="black"/>
<path opacity="0.2" d="M325.38 133.703H283.38V150.703H325.38V133.703Z" fill="black"/>
<path opacity="0.2" d="M299.51 159.393H257.51V176.393H299.51V159.393Z" fill="black"/>
<path opacity="0.2" d="M327.96 46.5427H285.96V63.5427H327.96V46.5427Z" fill="black"/>
<path opacity="0.2" d="M294 252.713H252V269.713H294V252.713Z" fill="black"/>
<path opacity="0.2" d="M211.2 100.913H169.2V117.913H211.2V100.913Z" fill="black"/>
<path opacity="0.2" d="M257.2 100.913H215.2V117.913H257.2V100.913Z" fill="black"/>
<path opacity="0.2" d="M222 378.423H180V395.423H222V378.423Z" fill="black"/>
<path opacity="0.2" d="M200 399.423H158V416.423H200V399.423Z" fill="black"/>
<path opacity="0.1" d="M276.51 182.893H234.51V199.893H276.51V182.893Z" fill="black"/>
<path opacity="0.1" d="M214.38 58.6227H172.38V75.6227H214.38V58.6227Z" fill="black"/>
<path opacity="0.1" d="M486 311.713H444V328.713H486V311.713Z" fill="black"/>
<path opacity="0.1" d="M240 337.713H198V354.713H240V337.713Z" fill="black"/>
<path opacity="0.1" d="M288 337.713H246V354.713H288V337.713Z" fill="black"/>
<path opacity="0.1" d="M292 313.713H250V330.713H292V313.713Z" fill="black"/>
<path opacity="0.1" d="M324.51 182.893H282.51V199.893H324.51V182.893Z" fill="black"/>
<path opacity="0.2" d="M346 397.713H304V414.713H346V397.713Z" fill="black"/>
<path opacity="0.1" d="M323 421.213H281V438.213H323V421.213Z" fill="black"/>
<path opacity="0.1" d="M371 421.213H329V438.213H371V421.213Z" fill="black"/>
<path opacity="0.2" d="M142.39 186.123H100.39V203.123H142.39V186.123Z" fill="black"/>
<path opacity="0.1" d="M119.39 209.623H77.39V226.623H119.39V209.623Z" fill="black"/>
<path opacity="0.1" d="M167.39 209.623H125.39V226.623H167.39V209.623Z" fill="black"/>
<path opacity="0.2" d="M126 312.713H84V329.713H126V312.713Z" fill="black"/>
<path opacity="0.1" d="M312 231.423H270V248.423H312V231.423Z" fill="black"/>
<path opacity="0.1" d="M249 398.423H207V415.423H249V398.423Z" fill="black"/>
<path opacity="0.1" d="M235.2 79.9127H193.2V96.9127H235.2V79.9127Z" fill="black"/>
<path opacity="0.2" d="M102 256.423H60V273.423H102V256.423Z" fill="black"/>
<path opacity="0.1" d="M126 235.423H84V252.423H126V235.423Z" fill="black"/>
<path opacity="0.1" d="M233 133.213H191V150.213H233V133.213Z" fill="black"/>
<path opacity="0.1" d="M171.77 143.193H129.77V160.193H171.77V143.193Z" fill="black"/>
<path opacity="0.2" d="M379 270.953H337V287.953H379V270.953Z" fill="black"/>
<path opacity="0.2" d="M72.53 364.983H30.53V381.983H72.53V364.983Z" fill="black"/>
<path opacity="0.1" d="M54.39 126.123H12.39V143.123H54.39V126.123Z" fill="black"/>
<path opacity="0.1" d="M102.39 126.123H60.39V143.123H102.39V126.123Z" fill="black"/>
<path opacity="0.1" d="M106.39 102.123H64.39V119.123H106.39V102.123Z" fill="black"/>
<path opacity="0.1" d="M75 170.423H33V187.423H75V170.423Z" fill="black"/>
<path opacity="0.2" d="M129.53 382.483H87.53V399.483H129.53V382.483Z" fill="black"/>
<path d="M469.94 433.503H461.41V459.483H469.94V433.503Z" fill="#263238" stroke="#263238" stroke-miterlimit="10" stroke-linecap="round"/>
<path d="M392.39 433.503H383.86V459.483H392.39V433.503Z" fill="#263238" stroke="#263238" stroke-miterlimit="10" stroke-linecap="round"/>
<path d="M385.15 279.443H467C468.262 279.443 469.473 279.944 470.366 280.837C471.258 281.73 471.76 282.94 471.76 284.203V287.383H380.38V284.203C380.38 283.577 380.503 282.957 380.743 282.379C380.983 281.801 381.335 281.275 381.778 280.833C382.221 280.391 382.747 280.041 383.325 279.802C383.904 279.563 384.524 279.441 385.15 279.443V279.443Z" fill="#263238" stroke="#263238" stroke-miterlimit="10" stroke-linecap="round"/>
<path d="M390.75 287.083H462.51V456.683C462.51 457.627 462.135 458.532 461.467 459.2C460.8 459.867 459.894 460.243 458.95 460.243H394.31C393.366 460.243 392.46 459.867 391.793 459.2C391.125 458.532 390.75 457.627 390.75 456.683V287.083Z" fill="#92E3A9" stroke="#263238" stroke-miterlimit="10" stroke-linecap="round"/>
<path d="M412.51 378.673H440.73V456.673C440.73 457.617 440.355 458.522 439.687 459.19C439.02 459.858 438.114 460.233 437.17 460.233H416.07C415.126 460.233 414.22 459.858 413.553 459.19C412.885 458.522 412.51 457.617 412.51 456.673V378.673Z" fill="#92E3A9" stroke="#263238" stroke-miterlimit="10" stroke-linecap="round"/>
<path d="M470.73 360.033L462.66 371.433H390.7L382.53 360.033V287.083H470.73V360.033Z" fill="#92E3A9" stroke="#263238" stroke-miterlimit="10" stroke-linecap="round"/>
<path d="M437.07 356.973C435.81 358.973 434.56 361.043 433.29 363.073C433.131 363.35 432.898 363.577 432.617 363.728C432.336 363.88 432.019 363.951 431.7 363.933H429.19V365.743H429.07L428.41 364.613C427.85 363.613 427.29 362.613 426.74 361.673C426.708 361.598 426.692 361.519 426.692 361.438C426.692 361.357 426.708 361.277 426.74 361.203C427.51 359.733 428.31 358.273 429.16 356.693V358.923H432.78L429.96 353.993L434.55 351.343L437.11 356.003L437.07 356.973Z" fill="white"/>
<path d="M423.51 344.843C423.71 344.843 423.91 344.923 424.11 344.933L429.46 345.003C429.812 344.98 430.163 345.063 430.468 345.241C430.773 345.419 431.017 345.685 431.17 346.003C431.54 346.703 431.97 347.373 432.39 348.083L434 347.163L434.06 347.223L432.86 349.413C432.51 350.053 432.16 350.703 431.8 351.333C431.73 351.453 431.58 351.603 431.46 351.603C429.79 351.703 428.13 351.773 426.46 351.763L428.25 350.703C427.64 349.703 427.05 348.703 426.41 347.563C425.41 349.273 424.53 350.923 423.61 352.563L419 350.033L419.67 348.803C420.08 348.053 420.53 347.323 420.91 346.553C421.082 346.152 421.336 345.793 421.657 345.498C421.977 345.203 422.357 344.98 422.77 344.843H423.51Z" fill="white"/>
<path d="M417.06 353.253L415.45 352.253V352.163H417.24C418.05 352.163 418.86 352.213 419.67 352.163C419.923 352.12 420.183 352.164 420.408 352.287C420.633 352.411 420.81 352.606 420.91 352.843C421.65 354.133 422.46 355.393 423.19 356.723L421.35 355.623L419.53 358.783H425.2V364.073H420.82C420.356 364.088 419.898 363.968 419.502 363.726C419.106 363.484 418.789 363.132 418.59 362.713C417.67 360.933 416.76 359.153 415.8 357.393C415.595 357.071 415.49 356.696 415.499 356.315C415.508 355.934 415.63 355.564 415.85 355.253C416.28 354.633 416.64 353.923 417.06 353.253Z" fill="white"/>
<path d="M455.87 328.783H397.38L392.22 287.083H461.03L455.87 328.783Z" stroke="#263238" stroke-miterlimit="10" stroke-linecap="round"/>
<path d="M475.81 287.083H377.45V296.353H475.81V287.083Z" fill="#92E3A9" stroke="#263238" stroke-miterlimit="10" stroke-linecap="round"/>
<path d="M402.76 328.293V311.363" stroke="#263238" stroke-miterlimit="10" stroke-linecap="round"/>
<path d="M414.18 328.293V308.213" stroke="#263238" stroke-miterlimit="10" stroke-linecap="round"/>
<path d="M425.6 328.293V301.913" stroke="#263238" stroke-miterlimit="10" stroke-linecap="round"/>
<path d="M437.03 328.293V308.213" stroke="#263238" stroke-miterlimit="10" stroke-linecap="round"/>
<path d="M448.45 328.293V311.363" stroke="#263238" stroke-miterlimit="10" stroke-linecap="round"/>
<path d="M361.46 433.503H352.93V459.483H361.46V433.503Z" fill="#263238" stroke="#263238" stroke-miterlimit="10" stroke-linecap="round"/>
<path d="M283.91 433.503H275.38V459.483H283.91V433.503Z" fill="#263238" stroke="#263238" stroke-miterlimit="10" stroke-linecap="round"/>
<path d="M276.67 279.443H358.55C359.815 279.443 361.028 279.945 361.923 280.84C362.817 281.734 363.32 282.948 363.32 284.213V287.393H271.9V284.213C271.9 282.948 272.403 281.734 273.297 280.84C274.192 279.945 275.405 279.443 276.67 279.443Z" fill="#263238" stroke="#263238" stroke-miterlimit="10" stroke-linecap="round"/>
<path d="M282.27 287.083H354V456.683C354 457.627 353.625 458.532 352.957 459.2C352.29 459.867 351.384 460.243 350.44 460.243H285.83C284.886 460.243 283.98 459.867 283.313 459.2C282.645 458.532 282.27 457.627 282.27 456.683V287.083Z" fill="#92E3A9" stroke="#263238" stroke-miterlimit="10" stroke-linecap="round"/>
<path d="M304 378.673H332.22V456.673C332.22 457.617 331.845 458.522 331.177 459.19C330.51 459.858 329.604 460.233 328.66 460.233H307.59C307.122 460.233 306.66 460.141 306.228 459.962C305.796 459.783 305.403 459.52 305.073 459.19C304.742 458.859 304.48 458.467 304.301 458.035C304.122 457.603 304.03 457.14 304.03 456.673V378.673H304Z" fill="#92E3A9" stroke="#263238" stroke-miterlimit="10" stroke-linecap="round"/>
<path d="M362.25 360.033L354.19 371.433H282.23L274.05 360.033V287.083H362.25V360.033Z" fill="#92E3A9" stroke="#263238" stroke-miterlimit="10" stroke-linecap="round"/>
<path d="M328.31 356.973L324.53 363.073C324.371 363.35 324.138 363.577 323.857 363.728C323.576 363.88 323.259 363.951 322.94 363.933H320.43V365.743H320.31L319.65 364.613C319.09 363.613 318.53 362.613 317.98 361.673C317.948 361.598 317.932 361.519 317.932 361.438C317.932 361.357 317.948 361.277 317.98 361.203C318.75 359.733 319.55 358.273 320.39 356.693V358.923H324L321.18 353.993L325.77 351.343L328.33 356.003L328.31 356.973Z" fill="white"/>
<path d="M314.74 344.843C314.95 344.843 315.15 344.923 315.35 344.933L320.7 345.003C321.052 344.981 321.403 345.065 321.707 345.243C322.011 345.421 322.256 345.685 322.41 346.003C322.78 346.703 323.2 347.373 323.63 348.083L325.24 347.163L325.3 347.223L324.1 349.413C323.75 350.053 323.4 350.703 323.03 351.333C322.96 351.453 322.82 351.603 322.7 351.603C321.03 351.703 319.37 351.773 317.7 351.763L319.5 350.703C318.89 349.703 318.3 348.703 317.65 347.563C316.7 349.273 315.78 350.923 314.86 352.563L310.24 350.013L310.92 348.783C311.33 348.033 311.78 347.303 312.15 346.533C312.325 346.133 312.581 345.774 312.904 345.479C313.226 345.185 313.606 344.961 314.02 344.823L314.74 344.843Z" fill="white"/>
<path d="M308.3 353.253L306.68 352.253V352.163H308.46C309.28 352.163 310.09 352.213 310.9 352.163C311.153 352.12 311.413 352.164 311.638 352.287C311.863 352.411 312.04 352.606 312.14 352.843C312.87 354.133 313.68 355.393 314.41 356.723L312.58 355.623L310.75 358.783H316.43V364.073H312.05C311.586 364.089 311.127 363.969 310.731 363.728C310.334 363.486 310.018 363.133 309.82 362.713C308.9 360.933 307.98 359.153 307.03 357.393C306.822 357.072 306.716 356.697 306.725 356.315C306.734 355.933 306.858 355.563 307.08 355.253C307.52 354.633 307.88 353.923 308.3 353.253Z" fill="white"/>
<path d="M347.39 328.783H288.9L283.74 287.083H352.55L347.39 328.783Z" stroke="#263238" stroke-miterlimit="10" stroke-linecap="round"/>
<path d="M367.33 287.083H268.97V296.353H367.33V287.083Z" fill="#92E3A9" stroke="#263238" stroke-miterlimit="10" stroke-linecap="round"/>
<path d="M294.28 328.293V311.363" stroke="#263238" stroke-miterlimit="10" stroke-linecap="round"/>
<path d="M305.7 328.293V308.213" stroke="#263238" stroke-miterlimit="10" stroke-linecap="round"/>
<path d="M317.13 328.293V301.913" stroke="#263238" stroke-miterlimit="10" stroke-linecap="round"/>
<path d="M328.55 328.293V308.213" stroke="#263238" stroke-miterlimit="10" stroke-linecap="round"/>
<path d="M339.97 328.293V311.363" stroke="#263238" stroke-miterlimit="10" stroke-linecap="round"/>
<path d="M254.44 286.483H167.26C167.26 286.483 161.88 200.963 167.26 194.863C177.64 183.093 245.95 185.223 254.44 194.863C260.39 201.603 254.44 286.483 254.44 286.483Z" fill="#263238" stroke="#263238" stroke-miterlimit="10" stroke-linecap="round"/>
<path d="M228.96 207.183H193C184.953 207.183 178.43 213.706 178.43 221.753V259.433C178.43 267.48 184.953 274.003 193 274.003H228.96C237.007 274.003 243.53 267.48 243.53 259.433V221.753C243.53 213.706 237.007 207.183 228.96 207.183Z" fill="#263238" stroke="white" stroke-miterlimit="10" stroke-linecap="round"/>
<path d="M253.65 433.503H245.12V459.483H253.65V433.503Z" fill="#263238" stroke="#263238" stroke-miterlimit="10" stroke-linecap="round"/>
<path d="M176.1 433.503H167.57V459.483H176.1V433.503Z" fill="#263238" stroke="#263238" stroke-miterlimit="10" stroke-linecap="round"/>
<path d="M174.46 287.083H246.22V456.683C246.22 457.15 246.128 457.613 245.949 458.045C245.77 458.477 245.508 458.869 245.177 459.2C244.847 459.531 244.454 459.793 244.022 459.972C243.59 460.151 243.128 460.243 242.66 460.243H178C177.056 460.243 176.15 459.868 175.483 459.2C174.815 458.532 174.44 457.627 174.44 456.683V287.083H174.46Z" fill="#92E3A9" stroke="#263238" stroke-miterlimit="10" stroke-linecap="round"/>
<path d="M196.23 378.673H224.45V456.673C224.45 457.617 224.075 458.523 223.407 459.19C222.74 459.858 221.834 460.233 220.89 460.233H199.79C198.846 460.233 197.94 459.858 197.273 459.19C196.605 458.523 196.23 457.617 196.23 456.673V378.673Z" fill="#92E3A9" stroke="#263238" stroke-miterlimit="10" stroke-linecap="round"/>
<path d="M254.44 360.033L246.38 371.433H174.42L166.24 360.033V287.083H254.44V360.033Z" fill="#92E3A9" stroke="#263238" stroke-miterlimit="10" stroke-linecap="round"/>
<path d="M221.15 356.973L217.38 363.073C217.218 363.35 216.983 363.576 216.701 363.728C216.419 363.88 216.1 363.951 215.78 363.933H213.27V365.743H213.15L212.49 364.613C211.93 363.613 211.37 362.613 210.82 361.673C210.788 361.598 210.772 361.519 210.772 361.438C210.772 361.357 210.788 361.277 210.82 361.203C211.59 359.733 212.39 358.273 213.24 356.693V358.923H216.86L214 354.013L218.59 351.363L221.15 356.023V356.973Z" fill="white"/>
<path d="M207.59 344.843C207.79 344.843 207.99 344.923 208.19 344.933L213.54 345.003C213.892 344.98 214.243 345.063 214.548 345.241C214.853 345.419 215.097 345.685 215.25 346.003C215.62 346.703 216.05 347.373 216.47 348.083L218.08 347.163L218.14 347.223L216.94 349.413C216.59 350.053 216.24 350.703 215.88 351.333C215.81 351.453 215.66 351.603 215.54 351.603C213.88 351.703 212.21 351.773 210.54 351.763L212.33 350.703C211.72 349.703 211.13 348.703 210.49 347.563C209.49 349.273 208.61 350.923 207.69 352.563L203.08 350.013L203.75 348.783C204.16 348.033 204.61 347.303 204.99 346.533C205.162 346.132 205.416 345.773 205.737 345.478C206.057 345.184 206.437 344.96 206.85 344.823L207.59 344.843Z" fill="white"/>
<path d="M201.14 353.253L199.53 352.253V352.163H201.32C202.13 352.163 202.94 352.213 203.75 352.163C204.003 352.12 204.263 352.164 204.488 352.287C204.713 352.411 204.89 352.606 204.99 352.843C205.73 354.133 206.54 355.393 207.27 356.723L205.43 355.623L203.61 358.783H209.28V364.073H204.9C204.436 364.088 203.978 363.968 203.582 363.726C203.186 363.484 202.869 363.132 202.67 362.713C201.75 360.933 200.84 359.153 199.89 357.393C199.675 357.077 199.56 356.704 199.56 356.323C199.56 355.941 199.675 355.568 199.89 355.253C200.36 354.633 200.72 353.923 201.14 353.253Z" fill="white"/>
<path d="M239.59 328.783H181.09L175.93 287.083H244.75L239.59 328.783Z" stroke="#263238" stroke-miterlimit="10" stroke-linecap="round"/>
<path d="M259.52 287.083H161.16V296.353H259.52V287.083Z" fill="#92E3A9" stroke="#263238" stroke-miterlimit="10" stroke-linecap="round"/>
<path d="M186.47 328.293V311.363" stroke="#263238" stroke-miterlimit="10" stroke-linecap="round"/>
<path d="M197.89 328.293V308.213" stroke="#263238" stroke-miterlimit="10" stroke-linecap="round"/>
<path d="M209.32 328.293V301.913" stroke="#263238" stroke-miterlimit="10" stroke-linecap="round"/>
<path d="M220.74 328.293V308.213" stroke="#263238" stroke-miterlimit="10" stroke-linecap="round"/>
<path d="M232.16 328.293V311.363" stroke="#263238" stroke-miterlimit="10" stroke-linecap="round"/>
<path d="M340 26.5728V238.643H473.51V26.5728H340ZM468.65 77.5127H409.81V34.2928H468.65V77.5127ZM409.81 135.123H468.65V181.433H409.81V135.123ZM409.81 129.473V83.1628H468.65V129.473H409.81ZM344.88 34.2928H403.72V77.5127H345.18V83.1628H403.72V129.473H345.18V135.123H403.72V181.433H345.18V187.083H403.72V230.923H344.88V34.2928ZM409.81 230.923V187.083H468.65V230.923H409.81Z" stroke="#263238" stroke-miterlimit="10" stroke-linecap="round"/>
<path d="M395.29 47.2128L365.6 71.7828" stroke="#263238" stroke-miterlimit="10" stroke-linecap="round"/>
<path d="M454.15 95.3328L424.46 119.893" stroke="#263238" stroke-miterlimit="10" stroke-linecap="round"/>
<path d="M387.1 199.233L357.41 223.803" stroke="#263238" stroke-miterlimit="10" stroke-linecap="round"/>
<path d="M379.72 54.3828L366.11 65.6428" stroke="#263238" stroke-miterlimit="10" stroke-linecap="round"/>
<path d="M451.89 89.7028L438.28 100.963" stroke="#263238" stroke-miterlimit="10" stroke-linecap="round"/>
<path d="M385.35 206.913L371.74 218.173" stroke="#263238" stroke-miterlimit="10" stroke-linecap="round"/>
<path d="M381.25 152.653L367.65 163.913" stroke="#263238" stroke-miterlimit="10" stroke-linecap="round"/>
<path d="M450.86 200.253L437.26 211.523" stroke="#263238" stroke-miterlimit="10" stroke-linecap="round"/>
<path d="M481.79 238.503H332.33V257.073H481.79V238.503Z" stroke="#263238" stroke-miterlimit="10" stroke-linecap="round"/>
<path d="M151.62 406.013C149.62 408.343 150.22 411.233 150.08 414.313C150.109 415.729 150.035 417.147 149.86 418.553C149.28 416.653 148.64 414.653 147.86 412.753C147.86 410.483 147.77 407.653 147.61 405.513C147.39 402.453 146.61 398.153 143.44 398.313C141.1 398.443 140.44 400.573 140.8 402.673C141.28 405.323 143.12 407.133 144.98 409.363C145.875 410.376 146.697 411.452 147.44 412.583C147.51 412.713 147.79 413.453 147.84 413.583V413.633C148.37 415.013 148.84 416.473 149.28 417.883C148.37 416.103 147.07 413.833 146.06 412.253C144.4 409.683 140.99 406.343 138.4 409.113C136.49 411.163 138.12 413.443 139.55 414.953C141.36 416.873 143.4 417.203 146.09 417.843C147.281 418.013 148.442 418.35 149.54 418.843C149.6 418.843 149.64 419.073 149.65 419.133C149.657 419.179 149.657 419.226 149.65 419.273H149.73C150.457 421.942 150.998 424.659 151.35 427.403C151.35 427.613 151.35 427.833 151.41 428.043C150.07 426.193 148.6 424.243 147.14 422.533C145.28 420.343 141.43 417.773 139.29 420.793C137.72 423.023 139.39 424.973 140.97 426.193C142.97 427.743 145.04 427.723 147.71 427.833C148.36 427.833 150.6 427.653 151.4 428.173V428.243L151.32 428.333H151.41C151.5 429.815 151.5 431.301 151.41 432.783C151.21 434.273 150.62 435.783 150.27 437.213C149.65 435.473 148.792 433.827 147.72 432.323C146.13 430.053 142.66 427.103 140.06 429.393C138.14 431.093 139.28 433.193 140.61 434.563C142.3 436.293 144.34 436.443 146.84 436.873C147.968 436.937 149.082 437.155 150.15 437.523C149.58 439.743 148.86 441.933 148.34 444.183C147.491 442.582 146.453 441.088 145.25 439.733C143.42 437.823 139.81 436.403 137.62 438.783C136 440.543 137.01 442.373 138.52 443.423C140.42 444.743 142.31 444.423 144.77 444.283C145.36 444.283 147.52 443.863 148.27 444.283C147.566 446.816 147.309 449.452 147.51 452.073C147.481 452.063 147.449 452.063 147.42 452.073C147.42 452.073 147.48 452.073 147.5 452.073C147.52 452.073 147.63 452.293 147.5 452.213C145.97 451.053 145.12 449.693 143.5 448.303C141.5 446.643 137.92 445.793 136.03 448.473C134.63 450.473 136.23 452.173 137.89 452.893C139.99 453.803 141.67 453.343 144.07 452.783C144.67 452.643 146.68 451.963 147.51 452.283C148.222 455.299 149.314 458.212 150.76 460.953L151 460.743C149.567 458.035 148.497 455.15 147.82 452.163C149.643 452.684 151.501 453.075 153.38 453.333C156.22 453.593 160.38 452.843 161.19 449.333C161.8 446.763 159.74 445.843 157.66 446.073C155.03 446.373 153.22 448.073 150.89 449.763C149.955 450.609 148.925 451.344 147.82 451.953C147.38 449.403 148 446.843 148.56 444.283C150.353 444.804 152.181 445.199 154.03 445.463C156.84 445.783 160.94 444.693 161.74 441.243C162.32 438.703 160.43 437.563 158.38 437.873C155.79 438.273 154.33 439.983 152.05 441.713C151.51 442.133 149.58 443.933 148.62 444.163C149.1 442.063 149.81 439.873 150.37 437.753C150.19 437.753 150.05 437.753 150.72 437.623C152.673 437.441 154.611 437.124 156.52 436.673C158.83 436.003 162.85 433.143 162.05 429.673C161.46 427.073 159.32 426.793 157.5 428.113C155.19 429.773 154.82 431.883 153.26 434.373C152.84 435.023 151.52 437.373 150.43 437.693C150.8 436.113 151.49 434.423 151.71 432.853C151.81 431.328 151.81 429.798 151.71 428.273C153.501 427.894 155.25 427.338 156.93 426.613C159.79 425.273 162.4 422.013 161.36 418.563C160.59 416.013 158.36 415.673 156.48 417.113C154.14 418.943 153.96 421.353 152.96 424.203C152.666 425.454 152.241 426.671 151.69 427.833C151.665 427.687 151.648 427.54 151.64 427.393C151.286 424.588 150.724 421.814 149.96 419.093C151.532 417.96 153.041 416.741 154.48 415.443C156.85 413.193 158.65 409.033 156.77 406.083C155.4 403.863 153.16 404.173 151.62 406.013Z" fill="#263238"/>
<path d="M117.34 429.693C116.83 431.473 117.86 432.943 118.55 434.693C118.924 435.471 119.238 436.277 119.49 437.103C118.69 436.193 117.84 435.243 116.95 434.373C116.39 433.113 115.63 431.563 114.95 430.373C114.07 428.733 112.56 426.543 110.84 427.373C109.57 428.023 109.73 429.373 110.46 430.453C111.39 431.803 112.86 432.353 114.46 433.123C115.212 433.462 115.937 433.856 116.63 434.303C116.7 434.353 117.04 434.693 117.1 434.743C117.74 435.383 118.38 436.073 118.96 436.743C117.96 435.983 116.73 435.043 115.77 434.413C114.21 433.413 111.48 432.413 110.77 434.583C110.21 436.193 111.69 437.053 112.87 437.583C114.35 438.193 115.56 437.873 117.22 437.583C117.93 437.386 118.663 437.288 119.4 437.293C119.4 437.293 119.51 437.403 119.52 437.433C119.527 437.462 119.527 437.493 119.52 437.523V437.523C120.587 438.826 121.566 440.199 122.45 441.633L122.64 441.973C121.43 441.283 120.13 440.563 118.89 439.973C117.31 439.223 114.53 438.753 114.1 440.973C113.78 442.613 115.19 443.273 116.38 443.563C117.87 443.923 119.02 443.393 120.53 442.793C121.189 442.412 121.916 442.164 122.67 442.063C122.67 442.063 122.67 442.063 122.67 442.063V442.133H122.72C123.138 442.938 123.512 443.766 123.84 444.613C124.043 445.521 124.2 446.439 124.31 447.363C123.529 446.55 122.64 445.847 121.67 445.273C120.22 444.413 117.56 443.633 116.67 445.563C116.02 446.983 117.18 447.863 118.26 448.293C119.63 448.833 120.8 448.413 122.26 448.023C122.902 447.776 123.575 447.622 124.26 447.563C124.5 448.933 124.64 450.333 124.91 451.713C124.04 451.033 123.089 450.462 122.08 450.013C120.6 449.403 118.23 449.513 117.61 451.383C117.15 452.763 118.16 453.533 119.26 453.743C120.65 454.003 121.62 453.353 122.95 452.663C123.27 452.493 124.38 451.743 124.95 451.783C125.188 453.367 125.702 454.897 126.47 456.303V456.303C126.47 456.303 126.59 456.393 126.47 456.373C125.33 456.103 124.47 455.563 123.27 455.193C121.77 454.753 119.54 455.193 119.16 457.193C118.87 458.643 120.16 459.193 121.29 459.193C122.69 459.193 123.5 458.503 124.7 457.593C125 457.373 125.95 456.493 126.49 456.463C127.649 457.959 128.993 459.303 130.49 460.463L130.58 460.283C129.105 459.129 127.79 457.784 126.67 456.283C127.813 456.121 128.943 455.878 130.05 455.553C131.7 454.983 133.81 453.553 133.4 451.393C133.1 449.803 131.73 449.813 130.63 450.463C129.24 451.283 128.63 452.653 127.78 454.203C127.474 454.913 127.084 455.584 126.62 456.203C125.84 454.829 125.331 453.318 125.12 451.753C126.245 451.595 127.358 451.358 128.45 451.043C130.09 450.523 132.11 448.893 131.69 446.783C131.38 445.223 130.04 445.053 128.98 445.783C127.64 446.653 127.26 447.963 126.42 449.493C126.093 450.288 125.659 451.035 125.13 451.713C124.87 450.423 124.72 449.033 124.5 447.713C124.4 447.713 124.32 447.783 124.66 447.553C125.706 446.958 126.709 446.29 127.66 445.553C128.78 444.613 130.3 442.023 128.98 440.263C127.98 438.973 126.74 439.343 126.06 440.533C125.19 442.033 125.51 443.293 125.26 445.063C125.19 445.533 125.05 447.173 124.52 447.623C124.33 446.623 124.3 445.543 124.02 444.623C123.698 443.75 123.314 442.901 122.87 442.083C123.771 441.427 124.606 440.683 125.36 439.863C126.62 438.403 127.25 435.933 125.82 434.283C125.636 434.02 125.384 433.813 125.09 433.684C124.797 433.555 124.473 433.509 124.155 433.551C123.838 433.594 123.537 433.723 123.288 433.924C123.038 434.125 122.849 434.391 122.74 434.693C121.9 436.293 122.4 437.693 122.55 439.513C122.702 440.28 122.772 441.061 122.76 441.843C122.76 441.793 122.67 441.693 122.62 441.613C121.718 440.145 120.715 438.742 119.62 437.413C120.208 436.393 120.739 435.341 121.21 434.263C121.97 432.423 121.93 429.663 120.15 428.483C118.91 427.553 117.74 428.293 117.34 429.693Z" fill="#263238"/>
<path d="M114.17 154.263C114.17 154.263 115.56 159.003 114.96 161.183C114.359 162.968 114.023 164.831 113.96 166.713C113.96 168.713 117.96 173.243 115.74 175.023C114.518 176.066 112.993 176.69 111.39 176.803C110.605 179.773 109.603 182.681 108.39 185.503C106.81 188.863 106.81 189.453 104.63 189.453C102.45 189.453 99.15 187.923 99.15 187.923C99.15 187.923 95 194.593 94.8 199.143C94.6536 202.22 95.0601 205.299 96 208.233C96.59 210.613 110.44 234.143 110.24 238.293C110.04 242.443 107.47 245.413 107.07 247.193C106.67 248.973 103.32 296.193 103.52 300.573C103.72 304.953 102.52 325.093 102.52 325.093L91.64 326.283L59.2 323.113C59.2 323.113 56.44 322.523 54.66 305.523C52.88 288.523 59.8 278.823 63.16 274.473C66.52 270.123 69.29 262.213 69.29 262.213C64.8911 250.056 63.1386 237.101 64.15 224.213C65.93 203.213 74.63 194.163 76.8 190.003C78.9856 185.848 80.5202 181.383 81.35 176.763C81.75 173.403 78.58 172.763 78.98 166.673C79.38 160.583 85.11 158.963 90.45 156.393C95.79 153.823 114.17 154.263 114.17 154.263Z" fill="white" stroke="#263238" stroke-miterlimit="10" stroke-linecap="round"/>
<path d="M102.51 325.093C102.51 325.093 103.69 304.923 103.51 300.573C103.41 298.573 104.08 287.423 104.86 275.823C90.94 275.253 73.77 271.553 66.06 269.743C65.2398 271.402 64.2726 272.985 63.17 274.473C59.81 278.823 52.89 288.473 54.67 305.523C56.45 322.573 59.21 323.113 59.21 323.113L91.64 326.283L102.51 325.093Z" fill="#9E9E9E" stroke="#263238" stroke-miterlimit="10" stroke-linecap="round"/>
<path d="M91.63 326.283L95.39 303.143" stroke="#263238" stroke-miterlimit="10" stroke-linecap="round"/>
<path d="M73.44 280.403C73.44 280.403 67.9 292.663 67.51 305.523C67.12 318.383 68.1 321.733 68.1 321.733" stroke="#263238" stroke-miterlimit="10" stroke-linecap="round"/>
<path d="M71.66 291.673C71.66 291.673 82.73 286.143 83.72 278.233" stroke="#263238" stroke-miterlimit="10" stroke-linecap="round"/>
<path d="M111 167.423C110.77 168.543 110.12 169.363 109.53 169.243C108.94 169.123 108.64 168.123 108.86 166.993C109.08 165.863 109.75 165.053 110.34 165.173C110.93 165.293 111.21 166.293 111 167.423Z" fill="#263238"/>
<path d="M107.85 162.923C108.468 162.371 109.257 162.049 110.084 162.013C110.912 161.977 111.726 162.227 112.39 162.723" stroke="#263238" stroke-miterlimit="10" stroke-linecap="round"/>
<path d="M104.29 177.593C105.288 178.613 106.618 179.245 108.04 179.373" stroke="#263238" stroke-miterlimit="10" stroke-linecap="round"/>
<path d="M76.21 148.923C76.21 148.923 68.89 142.393 65.33 141.603C61.77 140.813 56.63 145.363 55.45 150.703C54.27 156.043 57.23 162.163 62.37 163.553C67.51 164.943 69.88 163.153 71.66 160.983C73.44 158.813 76.21 148.923 76.21 148.923Z" fill="#263238" stroke="#263238" stroke-miterlimit="10" stroke-linecap="round"/>
<path d="M69.29 187.083C74.23 180.163 79.77 179.763 79.77 179.763C76.5837 182.758 73.9708 186.309 72.06 190.243" stroke="#263238" stroke-miterlimit="10" stroke-linecap="round"/>
<path d="M99.15 187.923C99.15 187.923 93.81 185.553 91.83 183.923C90.5303 182.75 89.573 181.247 89.06 179.573C89.06 179.573 89.65 186.303 91.06 189.073C92.3521 191.411 93.8056 193.657 95.41 195.793L99.15 187.923Z" fill="#263238" stroke="#263238" stroke-miterlimit="10" stroke-linecap="round"/>
<path d="M98.68 213.713C97.8 214.353 96.29 214.443 93.81 213.383C86.89 210.383 84.91 205.863 78.81 200.333C75.9 197.693 73.52 197.523 71.81 198.063C68.69 203.593 65.21 211.843 64.16 224.253C63.1487 237.141 64.9011 250.096 69.3 262.253C68.0267 265.806 66.4335 269.237 64.54 272.503C78.18 277.503 97.75 278.303 104.69 278.443C105.64 264.193 106.84 248.253 107.06 247.233C107.46 245.453 110.06 242.483 110.23 238.333C110.36 235.223 102.85 221.593 98.68 213.713Z" fill="#92E3A9" stroke="#263238" stroke-miterlimit="10" stroke-linecap="round"/>
<path d="M89.85 166.923C89.85 166.923 94.2 166.923 95.78 164.153C97.36 161.383 97.37 160.203 100.53 159.213C103.69 158.223 105.27 160.593 112.79 155.853C120.31 151.113 121.29 146.953 119.91 145.373C118.53 143.793 105.67 135.483 91.83 137.063C77.99 138.643 70.83 154.463 70.83 163.563C70.83 172.663 75.18 178.783 79.73 179.773C84.28 180.763 86.25 171.473 86.65 170.873C87.05 170.273 89.85 166.923 89.85 166.923Z" fill="#263238" stroke="#263238" stroke-miterlimit="10" stroke-linecap="round"/>
<path d="M91.43 168.103C91.43 168.103 87.28 160.193 83.92 162.763C80.56 165.333 80.92 169.683 83.52 172.453C86.12 175.223 88.52 173.833 88.52 173.833" fill="white"/>
<path d="M91.43 168.103C91.43 168.103 87.28 160.193 83.92 162.763C80.56 165.333 80.92 169.683 83.52 172.453C86.12 175.223 88.52 173.833 88.52 173.833" stroke="#263238" stroke-miterlimit="10" stroke-linecap="round"/>
<path d="M153.47 234.823H123.97V274.163H153.47V234.823Z" fill="white" stroke="#263238" stroke-miterlimit="10" stroke-linecap="round"/>
<path d="M140.085 233.866L111.972 242.805L123.894 280.295L152.006 271.356L140.085 233.866Z" fill="#92E3A9" stroke="#263238" stroke-miterlimit="10" stroke-linecap="round"/>
<path d="M137.753 237.234L109.64 246.173L121.561 283.663L149.674 274.724L137.753 237.234Z" fill="#92E3A9" stroke="#263238" stroke-miterlimit="10" stroke-linecap="round"/>
<path d="M121.12 290.463L110.77 246.983L141.31 241.033L144.16 251.643L143.12 254.233L149.85 283.473L121.12 290.463Z" fill="white" stroke="#263238" stroke-miterlimit="10" stroke-linecap="round"/>
<path d="M117.5 293.313L107.15 249.833L137.69 243.883L140.53 254.493L139.5 257.083L146.23 286.323L117.5 293.313Z" fill="white" stroke="#263238" stroke-miterlimit="10" stroke-linecap="round"/>
<path d="M144.67 263.293C144.67 263.293 145.67 253.713 148.56 249.053C151.45 244.393 157.1 240.773 157.1 240.773C157.1 240.773 164.34 242.323 169.52 245.693C172.571 247.659 175.354 250.012 177.8 252.693C177.8 252.693 164.08 257.603 161.24 263.303L144.67 263.293Z" fill="white" stroke="#263238" stroke-miterlimit="10" stroke-linecap="round"/>
<path d="M157.1 240.773C157.1 240.773 157.87 240.253 160.72 240.003C162.88 239.879 165.046 239.963 167.19 240.253C167.19 240.253 163.82 241.553 155.28 248.543C146.74 255.533 145.97 258.113 145.97 258.113C145.97 258.113 145.45 254.753 148.56 249.053C150.56 245.536 153.523 242.663 157.1 240.773V240.773Z" fill="white" stroke="#263238" stroke-miterlimit="10" stroke-linecap="round"/>
<path d="M158.39 246.723L166.93 251.383" stroke="#263238" stroke-miterlimit="10" stroke-linecap="round"/>
<path d="M155.03 250.613L160.98 253.973" stroke="#263238" stroke-miterlimit="10" stroke-linecap="round"/>
<path d="M150.63 255.013L155.03 257.333" stroke="#263238" stroke-miterlimit="10" stroke-linecap="round"/>
<path d="M105.17 261.193V310.263H164V261.193H105.17ZM146.51 270.483C146.51 271.597 146.067 272.665 145.28 273.453C144.492 274.24 143.424 274.683 142.31 274.683H126.84C125.726 274.683 124.658 274.24 123.87 273.453C123.082 272.665 122.64 271.597 122.64 270.483V270.483C122.64 269.369 123.082 268.301 123.87 267.513C124.658 266.725 125.726 266.283 126.84 266.283H142.31C143.424 266.283 144.492 266.725 145.28 267.513C146.067 268.301 146.51 269.369 146.51 270.483V270.483Z" fill="white" stroke="#263238" stroke-miterlimit="10" stroke-linecap="round"/>
<path d="M67.51 246.793C67.51 246.793 70.67 277.643 73.05 278.233C75.43 278.823 81.35 278.033 81.35 278.033C81.35 278.033 118.92 267.753 119.71 267.753C120.5 267.753 124.85 270.753 126.63 271.113C127.99 271.567 129.47 271.495 130.78 270.913C131.521 270.554 132.328 270.353 133.15 270.323C133.15 270.323 135.72 271.903 136.91 271.113C138.1 270.323 138.49 270.323 138.29 269.113C137.709 267.407 136.983 265.754 136.12 264.173L134.93 261.603C136.35 262.101 137.804 262.499 139.28 262.793C140.07 262.793 142.84 261.603 142.05 260.223C141.26 258.843 138.89 258.443 134.93 256.853C130.97 255.263 128.01 254.853 127.02 255.853C126.03 256.853 125.02 257.433 124.65 258.023C124.28 258.613 119.31 259.603 117.73 260.023C116.15 260.443 85.73 261.603 85.73 261.603L84.35 245.603L67.51 246.793Z" fill="white" stroke="#263238" stroke-miterlimit="10" stroke-linecap="round"/>
<path d="M72.25 203.923C72.25 203.923 67.51 205.313 65.93 211.643C64.35 217.973 63.16 229.393 63.36 232.923C63.56 236.453 64.74 245.383 64.74 245.383L85.74 244.193C85.74 244.193 84.95 217.303 84.95 217.893" fill="#92E3A9"/>
<path d="M72.25 203.923C72.25 203.923 67.51 205.313 65.93 211.643C64.35 217.973 63.16 229.393 63.36 232.923C63.56 236.453 64.74 245.383 64.74 245.383L85.74 244.193C85.74 244.193 84.95 217.303 84.95 217.893" stroke="#263238" stroke-miterlimit="10" stroke-linecap="round"/>
<path d="M63.36 242.053L64.74 248.773L87.48 246.993L87.08 240.463L63.36 242.053Z" fill="white" stroke="#263238" stroke-miterlimit="10" stroke-linecap="round"/>
<path d="M100.33 326.283C100.33 326.283 97.56 354.923 95 372.743C92.44 390.563 87.69 411.503 86.9 419.803C86.11 428.103 85.5 441.553 85.7 442.923C85.9 444.293 97.17 451.823 99.7 453.013C102.23 454.203 108 453.803 107.01 456.173C106.02 458.543 105.01 457.953 100.69 458.543C96.37 459.133 88.43 458.153 84.47 458.153C80.51 458.153 73.99 458.743 72.41 457.953C70.83 457.163 72.61 452.613 73.6 449.253C74.59 445.893 74.79 443.713 74.79 437.593C74.79 431.473 76.17 415.243 74.19 399.593C72.21 383.943 75.19 367.363 75.58 365.193C75.97 363.023 79 355.143 79 354.163C79 353.183 79.79 325.883 79.79 325.883L100.33 326.283Z" fill="white" stroke="#263238" stroke-miterlimit="10" stroke-linecap="round"/>
<path d="M100.73 458.553C105.08 457.963 106.07 458.553 107.05 456.183C108.03 453.813 102.31 454.183 99.74 453.023C98.61 452.445 97.5117 451.808 96.45 451.113L95 454.603C95 454.603 81 453.303 73.09 451.073C72.15 454.073 71.15 457.313 72.46 457.963C74.04 458.753 80.57 458.163 84.52 458.163C88.47 458.163 96.38 459.153 100.73 458.553Z" fill="#263238" stroke="#263238" stroke-miterlimit="10" stroke-linecap="round"/>
<path d="M92.03 322.323L105.67 320.943L105.87 328.653L91.24 329.443L92.03 322.323Z" fill="white" stroke="#263238" stroke-miterlimit="10" stroke-linecap="round"/>
<path d="M57.82 322.523L60.59 370.923C60.59 370.923 51.89 384.763 47.93 393.663C45.27 399.663 40.75 411.813 36.07 420.953C34.0813 424.583 31.765 428.024 29.15 431.233C27.37 432.413 24.01 433.603 21.44 434.983C18.87 436.363 17.44 437.363 17.88 440.523C18.32 443.683 25 450.253 27 455.793C28 458.583 29 459.743 33.32 459.943C37.64 460.143 41.83 460.943 41.43 458.753C41.03 456.563 37.67 453.613 36.88 451.633C36.09 449.653 36.49 446.103 36.88 441.753C37.3 437.143 37.28 437.003 37.88 436.013C38.48 435.023 64.57 404.013 70.88 391.533C77.19 379.053 78.39 375.313 79.19 372.943C79.99 370.573 88.87 327.073 88.87 327.073L57.82 322.523Z" fill="white" stroke="#263238" stroke-miterlimit="10" stroke-linecap="round"/>
<path d="M41.41 458.753C41.16 457.413 39.79 455.753 38.58 454.233C35.58 454.363 34.8 454.913 32.12 452.233C29.79 449.923 25.64 438.583 24 433.803C23.13 434.203 22.27 434.603 21.48 435.023C18.91 436.413 17.48 437.403 17.92 440.563C18.36 443.723 25 450.253 27 455.793C28 458.583 29 459.743 33.32 459.943C37.64 460.143 41.81 460.923 41.41 458.753Z" fill="#263238" stroke="#263238" stroke-miterlimit="10" stroke-linecap="round"/>
<path d="M55.05 316.793L56.24 325.093L91.24 329.443L92.03 322.323L55.05 316.793Z" fill="white" stroke="#263238" stroke-miterlimit="10" stroke-linecap="round"/>
<path d="M10.67 460.243H492.41" stroke="#263238" stroke-miterlimit="10" stroke-linecap="round"/>
</svg>
